G04 Layer_Physical_Order=1*
G04 Layer_Color=255*
%FSAX25Y25*%
%MOIN*%
G70*
G01*
G75*
%ADD10R,0.02000X0.02000*%
%ADD11R,0.01181X0.03937*%
%ADD12R,0.03937X0.01181*%
%ADD13R,0.03937X0.01181*%
%ADD14R,0.01181X0.03937*%
%ADD15R,0.11500X0.11500*%
%ADD16R,0.02000X0.02000*%
%ADD17R,0.03740X0.03937*%
%ADD18R,0.01500X0.05400*%
%ADD19R,0.06299X0.03937*%
%ADD20R,0.03937X0.03543*%
%ADD21R,0.05906X0.04500*%
%ADD22R,0.03937X0.03937*%
%ADD23R,0.08661X0.07874*%
%ADD24R,0.05000X0.05000*%
%ADD25R,0.03268X0.02480*%
%ADD26R,0.01772X0.02756*%
%ADD27R,0.08268X0.03543*%
%ADD28R,0.08268X0.12598*%
%ADD29C,0.01000*%
%ADD30C,0.00700*%
%ADD31C,0.01500*%
%ADD32C,0.02000*%
%ADD33C,0.03000*%
%ADD34C,0.01181*%
%ADD35C,0.00600*%
%ADD36R,0.14700X0.02400*%
%ADD37R,0.09600X0.05800*%
%ADD38R,0.04800X0.07900*%
%ADD39R,0.28600X0.11200*%
%ADD40R,0.04300X0.04100*%
%ADD41R,0.06300X0.21200*%
%ADD42R,0.17100X0.03400*%
%ADD43C,0.11500*%
%ADD44C,0.04724*%
%ADD45O,0.05906X0.07480*%
%ADD46C,0.06900*%
%ADD47R,0.06900X0.06900*%
%ADD48C,0.02362*%
G36*
X0269296Y0369042D02*
Y0366133D01*
Y0362133D01*
X0269910D01*
Y0360754D01*
X0271796D01*
Y0359754D01*
X0269910D01*
Y0358216D01*
X0269410Y0358009D01*
X0267397Y0360022D01*
X0267819Y0361040D01*
X0267989Y0362333D01*
X0267819Y0363625D01*
X0267320Y0364829D01*
X0266526Y0365863D01*
X0265492Y0366656D01*
X0264513Y0367062D01*
Y0367603D01*
X0265492Y0368009D01*
X0266526Y0368802D01*
X0267320Y0369836D01*
X0267494Y0370256D01*
X0267984Y0370354D01*
X0269296Y0369042D01*
D02*
G37*
G36*
X0348141Y0374633D02*
X0348419Y0374217D01*
X0348173Y0373625D01*
X0348003Y0372333D01*
X0348173Y0371041D01*
X0348672Y0369836D01*
X0348714Y0369781D01*
X0347789Y0368856D01*
X0332596D01*
X0332128Y0368763D01*
X0331731Y0368498D01*
X0305110Y0341877D01*
X0285441D01*
X0285352Y0342009D01*
X0284730Y0342425D01*
X0284478Y0342475D01*
X0284372Y0343006D01*
X0284702Y0343227D01*
X0285118Y0343849D01*
X0285264Y0344583D01*
X0285197Y0344920D01*
X0285653Y0345376D01*
X0285885Y0345723D01*
X0285967Y0346133D01*
Y0366733D01*
X0285885Y0367142D01*
X0285653Y0367490D01*
X0284753Y0368390D01*
X0284406Y0368622D01*
X0283996Y0368703D01*
X0278895D01*
X0274446Y0373152D01*
X0274431Y0373230D01*
X0274396Y0373282D01*
Y0374633D01*
X0274896Y0374633D01*
X0348141Y0374633D01*
D02*
G37*
G36*
X0332087Y0364740D02*
Y0360807D01*
X0340725D01*
Y0359870D01*
X0332087D01*
Y0357879D01*
X0331865Y0357472D01*
X0331455Y0357390D01*
X0331107Y0357158D01*
X0328539Y0354590D01*
X0328307Y0354242D01*
X0328225Y0353833D01*
Y0313433D01*
X0328307Y0313023D01*
X0328539Y0312676D01*
X0330026Y0311189D01*
Y0307704D01*
X0324213D01*
Y0304863D01*
X0323738Y0304388D01*
X0323276Y0304579D01*
Y0307704D01*
X0316339D01*
Y0302478D01*
X0316264Y0302403D01*
X0315402D01*
Y0307704D01*
X0310175D01*
X0309490Y0308390D01*
X0309143Y0308622D01*
X0308733Y0308703D01*
X0303439D01*
X0289567Y0322576D01*
Y0326133D01*
X0289485Y0326542D01*
X0289253Y0326890D01*
X0289253Y0326890D01*
X0285953Y0330190D01*
X0285606Y0330422D01*
X0285196Y0330503D01*
X0285201Y0331001D01*
X0285230Y0331007D01*
X0285852Y0331423D01*
X0286268Y0332045D01*
X0286414Y0332779D01*
X0286268Y0333513D01*
X0285852Y0334135D01*
X0285230Y0334551D01*
X0284496Y0334697D01*
X0284292Y0334657D01*
X0283906Y0334974D01*
Y0336248D01*
X0274606D01*
Y0332290D01*
X0274144Y0332098D01*
X0266923Y0339319D01*
X0267320Y0339836D01*
X0267819Y0341040D01*
X0267989Y0342333D01*
X0267819Y0343625D01*
X0267320Y0344829D01*
X0266526Y0345863D01*
X0265492Y0346656D01*
X0264513Y0347062D01*
Y0347603D01*
X0265492Y0348009D01*
X0266526Y0348802D01*
X0267320Y0349836D01*
X0267819Y0351041D01*
X0267989Y0352333D01*
X0267819Y0353625D01*
X0267320Y0354829D01*
X0266526Y0355863D01*
X0265492Y0356657D01*
X0264513Y0357062D01*
Y0357603D01*
X0265306Y0357932D01*
X0269568Y0353670D01*
X0269410Y0353289D01*
X0269410D01*
Y0347533D01*
X0269796Y0347433D01*
Y0342433D01*
X0270296D01*
Y0341433D01*
X0272296D01*
Y0340933D01*
X0272796D01*
Y0338933D01*
X0274296D01*
X0274606Y0338561D01*
Y0337185D01*
X0283906D01*
Y0338661D01*
X0283996Y0338735D01*
X0284730Y0338881D01*
X0285352Y0339297D01*
X0285441Y0339430D01*
X0305616D01*
X0306085Y0339523D01*
X0306482Y0339788D01*
X0331625Y0364931D01*
X0332087Y0364740D01*
D02*
G37*
G36*
X0314396Y0298133D02*
Y0293833D01*
X0307096Y0293033D01*
X0297796D01*
X0296796Y0292733D01*
X0295296D01*
X0294251Y0293833D01*
X0291696Y0293833D01*
X0290996Y0294533D01*
X0290996Y0298119D01*
X0291710Y0298833D01*
X0313696D01*
X0314396Y0298133D01*
D02*
G37*
G36*
X0273265Y0292135D02*
Y0286201D01*
X0283709D01*
X0284927Y0287419D01*
Y0288239D01*
X0293772D01*
Y0289199D01*
X0295369D01*
X0295721Y0288845D01*
X0295712Y0287419D01*
X0296242D01*
Y0280787D01*
X0296296Y0280733D01*
X0288196Y0280733D01*
X0287796Y0280333D01*
Y0280265D01*
X0287383Y0279852D01*
X0287315D01*
X0287296Y0279833D01*
Y0279765D01*
X0286523Y0278992D01*
X0286319Y0278856D01*
X0285573Y0278109D01*
X0285437Y0277906D01*
X0285382Y0277633D01*
Y0277188D01*
X0285359Y0277072D01*
X0285382Y0276956D01*
Y0274630D01*
X0285359Y0274514D01*
X0285382Y0274397D01*
Y0274033D01*
X0285437Y0273760D01*
X0285591Y0273528D01*
X0285708Y0273411D01*
X0285549Y0272978D01*
X0285484Y0272911D01*
X0284508D01*
X0284041Y0273378D01*
X0283562Y0273698D01*
X0282996Y0273811D01*
X0267741D01*
X0267320Y0274829D01*
X0266526Y0275863D01*
X0265492Y0276657D01*
X0264288Y0277155D01*
X0262996Y0277325D01*
X0261704Y0277155D01*
X0260500Y0276657D01*
X0259466Y0275863D01*
X0259285Y0275628D01*
X0258812Y0275789D01*
Y0277883D01*
X0262496D01*
Y0282333D01*
Y0286783D01*
X0258812D01*
Y0288877D01*
X0259285Y0289037D01*
X0259466Y0288802D01*
X0260500Y0288009D01*
X0261704Y0287510D01*
X0262996Y0287340D01*
X0264288Y0287510D01*
X0265492Y0288009D01*
X0266526Y0288802D01*
X0267320Y0289836D01*
X0267819Y0291040D01*
X0267848Y0291262D01*
X0271296D01*
X0271706Y0291344D01*
X0272053Y0291576D01*
X0272803Y0292326D01*
X0273265Y0292135D01*
D02*
G37*
G36*
X0339896Y0307333D02*
X0339796Y0307233D01*
X0340526Y0306503D01*
Y0306189D01*
D01*
Y0288770D01*
X0338804Y0287048D01*
X0333567D01*
Y0301333D01*
Y0311133D01*
X0339896D01*
Y0307333D01*
D02*
G37*
G36*
X0294072Y0278333D02*
X0295573Y0275109D01*
X0293796Y0273333D01*
X0286796Y0273333D01*
X0286096Y0274033D01*
Y0277633D01*
X0286796Y0278333D01*
X0294072Y0278333D01*
D02*
G37*
G36*
X0309196Y0262333D02*
X0306196D01*
Y0263333D01*
X0306796Y0263933D01*
X0309196D01*
Y0262333D01*
D02*
G37*
G36*
X0285729Y0258700D02*
X0283466Y0256437D01*
X0282896Y0256551D01*
X0282162Y0256405D01*
X0281540Y0255989D01*
X0281124Y0255367D01*
X0280978Y0254633D01*
X0281124Y0253899D01*
X0281540Y0253276D01*
X0282162Y0252861D01*
X0282896Y0252715D01*
X0283630Y0252861D01*
X0284252Y0253276D01*
X0284668Y0253899D01*
X0284778Y0254451D01*
X0285278Y0254402D01*
Y0252333D01*
X0286447Y0251164D01*
X0296513D01*
X0296705Y0250702D01*
X0294435Y0248433D01*
X0292576D01*
Y0247411D01*
X0291116D01*
Y0248433D01*
X0287496D01*
X0286996Y0247933D01*
X0285887D01*
X0285654Y0248165D01*
D01*
X0282552Y0251268D01*
X0282072Y0251588D01*
X0281506Y0251701D01*
X0280430D01*
Y0252963D01*
X0277073D01*
X0276882Y0253425D01*
X0282619Y0259162D01*
X0285538D01*
X0285729Y0258700D01*
D02*
G37*
G36*
X0305996Y0267395D02*
X0307996D01*
Y0266395D01*
X0305996D01*
Y0265395D01*
X0305496D01*
Y0263402D01*
X0305482Y0263333D01*
Y0262333D01*
X0305496Y0262264D01*
Y0260395D01*
X0308247D01*
X0308482Y0259954D01*
X0308424Y0259867D01*
X0308278Y0259133D01*
X0308279Y0259129D01*
X0307962Y0258743D01*
X0304700D01*
Y0257733D01*
X0301996D01*
X0301296Y0257033D01*
Y0253428D01*
X0299385D01*
Y0252896D01*
X0298903Y0252718D01*
X0298514Y0252998D01*
Y0257051D01*
X0301820Y0260357D01*
X0303977D01*
Y0264357D01*
Y0268109D01*
X0305996D01*
Y0267395D01*
D02*
G37*
G36*
X0270826Y0248533D02*
X0270907Y0248123D01*
X0271139Y0247776D01*
X0274232Y0244683D01*
X0274162Y0244183D01*
X0274162D01*
Y0240400D01*
X0274107Y0240345D01*
X0270028D01*
Y0234349D01*
X0269528Y0234082D01*
X0269044Y0234405D01*
X0268186Y0234576D01*
X0267425D01*
X0267320Y0234829D01*
X0266526Y0235863D01*
X0265492Y0236656D01*
X0264288Y0237155D01*
X0262996Y0237325D01*
X0261704Y0237155D01*
X0260500Y0236656D01*
X0259466Y0235863D01*
X0259285Y0235628D01*
X0258812Y0235789D01*
Y0237883D01*
X0262496D01*
Y0242333D01*
Y0246783D01*
X0258812D01*
Y0248877D01*
X0259285Y0249038D01*
X0259466Y0248802D01*
X0260500Y0248009D01*
X0261704Y0247510D01*
X0262996Y0247340D01*
X0264288Y0247510D01*
X0265492Y0248009D01*
X0266526Y0248802D01*
X0267320Y0249836D01*
X0267819Y0251041D01*
X0267972Y0252209D01*
X0270826D01*
Y0248533D01*
D02*
G37*
G36*
X0299385Y0248954D02*
Y0245310D01*
Y0241373D01*
Y0237436D01*
X0304700D01*
Y0232152D01*
X0304462Y0232105D01*
X0303840Y0231689D01*
X0303424Y0231067D01*
X0303383Y0230860D01*
X0302905Y0230715D01*
X0294941Y0238678D01*
X0294462Y0238999D01*
X0293896Y0239111D01*
X0288008D01*
X0287649Y0239471D01*
X0287840Y0239933D01*
X0288116D01*
Y0241933D01*
X0288616D01*
Y0242433D01*
X0290616D01*
Y0243433D01*
X0291116D01*
Y0244454D01*
X0292576D01*
Y0243433D01*
X0293076D01*
Y0242433D01*
X0295076D01*
X0297076D01*
Y0243433D01*
X0297576D01*
Y0247852D01*
X0298885Y0249161D01*
X0299385Y0248954D01*
D02*
G37*
G36*
X0348595Y0274643D02*
X0348173Y0273625D01*
X0348003Y0272333D01*
X0348173Y0271041D01*
X0348672Y0269836D01*
X0349466Y0268802D01*
X0350500Y0268009D01*
X0351479Y0267603D01*
Y0267062D01*
X0350500Y0266656D01*
X0349466Y0265863D01*
X0348672Y0264829D01*
X0348173Y0263625D01*
X0348003Y0262333D01*
X0348173Y0261040D01*
X0348672Y0259836D01*
X0349466Y0258802D01*
X0350500Y0258009D01*
X0351479Y0257603D01*
Y0257062D01*
X0350500Y0256657D01*
X0349466Y0255863D01*
X0348672Y0254829D01*
X0348173Y0253625D01*
X0348003Y0252333D01*
X0348173Y0251041D01*
X0348672Y0249836D01*
X0349466Y0248802D01*
X0350500Y0248009D01*
X0351704Y0247510D01*
X0352996Y0247340D01*
X0354288Y0247510D01*
X0355492Y0248009D01*
X0356526Y0248802D01*
X0356707Y0249038D01*
X0357180Y0248877D01*
Y0246783D01*
X0353496D01*
Y0242333D01*
Y0237883D01*
X0357180D01*
Y0235789D01*
X0356707Y0235628D01*
X0356526Y0235863D01*
X0355492Y0236656D01*
X0354288Y0237155D01*
X0352996Y0237325D01*
X0351704Y0237155D01*
X0350500Y0236656D01*
X0349466Y0235863D01*
X0348672Y0234829D01*
X0348498Y0234409D01*
X0348008Y0234312D01*
X0345974Y0236345D01*
Y0276556D01*
X0346475Y0276764D01*
X0348595Y0274643D01*
D02*
G37*
G36*
X0333479Y0244048D02*
Y0242348D01*
X0335779D01*
Y0240129D01*
X0327039Y0231390D01*
X0326807Y0231042D01*
X0326726Y0230633D01*
Y0224076D01*
X0324253Y0221603D01*
X0315334D01*
X0314846Y0221633D01*
Y0224833D01*
X0313096D01*
Y0225833D01*
X0314846D01*
Y0229033D01*
X0312796D01*
Y0229533D01*
X0311689D01*
X0311591Y0229678D01*
X0311112Y0229998D01*
X0310546Y0230111D01*
X0310541Y0230110D01*
X0310075Y0230527D01*
X0309968Y0231067D01*
X0309598Y0231621D01*
X0309675Y0231898D01*
X0309806Y0232121D01*
X0318724D01*
Y0232122D01*
X0320691D01*
Y0237438D01*
X0326006D01*
Y0239405D01*
X0326007D01*
Y0242393D01*
X0330727D01*
X0331136Y0242474D01*
X0331484Y0242706D01*
X0333017Y0244240D01*
X0333479Y0244048D01*
D02*
G37*
G36*
X0286351Y0236587D02*
X0286830Y0236267D01*
X0287396Y0236154D01*
X0290018D01*
Y0235106D01*
X0289724Y0234667D01*
X0289578Y0233933D01*
X0289724Y0233199D01*
X0290140Y0232576D01*
X0290762Y0232161D01*
X0291496Y0232015D01*
X0292230Y0232161D01*
X0292852Y0232576D01*
X0293268Y0233199D01*
X0293414Y0233933D01*
X0293268Y0234667D01*
X0292974Y0235106D01*
Y0235756D01*
X0293475Y0235964D01*
X0300646Y0228792D01*
Y0221603D01*
X0282540D01*
X0280853Y0223290D01*
X0281044Y0223752D01*
X0287949D01*
Y0231252D01*
X0284567D01*
Y0237664D01*
X0285067Y0237871D01*
X0286351Y0236587D01*
D02*
G37*
G36*
X0343018Y0235733D02*
X0343130Y0235167D01*
X0343451Y0234687D01*
X0346851Y0231287D01*
X0347330Y0230967D01*
X0347896Y0230854D01*
X0348251D01*
X0348672Y0229836D01*
X0349466Y0228802D01*
X0350500Y0228009D01*
X0351704Y0227510D01*
X0352996Y0227340D01*
X0354288Y0227510D01*
X0355492Y0228009D01*
X0356526Y0228802D01*
X0356707Y0229037D01*
X0357180Y0228877D01*
Y0216333D01*
X0357184Y0216316D01*
X0357028Y0214735D01*
X0356562Y0213199D01*
X0355805Y0211783D01*
X0354787Y0210542D01*
X0353546Y0209523D01*
X0352130Y0208767D01*
X0350594Y0208301D01*
X0349013Y0208145D01*
X0348996Y0208148D01*
X0336449D01*
Y0210663D01*
X0332496D01*
X0328543D01*
Y0208148D01*
X0287449D01*
Y0210663D01*
X0283496D01*
X0279543D01*
Y0208148D01*
X0266996D01*
X0266979Y0208145D01*
X0265398Y0208301D01*
X0263862Y0208767D01*
X0262446Y0209523D01*
X0261205Y0210542D01*
X0260187Y0211783D01*
X0259430Y0213199D01*
X0258964Y0214735D01*
X0258808Y0216316D01*
X0258812Y0216333D01*
Y0228877D01*
X0259285Y0229037D01*
X0259466Y0228802D01*
X0260500Y0228009D01*
X0261704Y0227510D01*
X0262996Y0227340D01*
X0264288Y0227510D01*
X0265492Y0228009D01*
X0266526Y0228802D01*
X0267095Y0229544D01*
X0267737Y0229609D01*
X0269143Y0228203D01*
X0269871Y0227717D01*
X0270028Y0227686D01*
Y0226321D01*
X0276965D01*
Y0229798D01*
X0277237Y0230010D01*
X0277726Y0229791D01*
Y0223833D01*
X0277807Y0223423D01*
X0278039Y0223076D01*
X0281339Y0219776D01*
X0281339Y0219776D01*
X0281686Y0219544D01*
X0282096Y0219462D01*
X0324696D01*
X0325106Y0219544D01*
X0325453Y0219776D01*
X0328553Y0222876D01*
X0328785Y0223223D01*
X0328867Y0223633D01*
Y0223752D01*
X0336949D01*
Y0230441D01*
X0341753Y0235245D01*
X0341753Y0235245D01*
X0341985Y0235592D01*
X0342067Y0236002D01*
X0342067Y0236002D01*
Y0248133D01*
X0342067Y0248133D01*
X0341985Y0248542D01*
X0341753Y0248890D01*
X0339898Y0250745D01*
X0340089Y0251207D01*
X0343018D01*
Y0235733D01*
D02*
G37*
%LPC*%
G36*
X0271796Y0340433D02*
X0270296D01*
Y0338933D01*
X0271796D01*
Y0340433D01*
D02*
G37*
G36*
X0267446Y0286783D02*
X0263496D01*
Y0282833D01*
X0267446D01*
Y0286783D01*
D02*
G37*
G36*
Y0281833D02*
X0263496D01*
Y0277883D01*
X0267446D01*
Y0281833D01*
D02*
G37*
G36*
Y0246783D02*
X0263496D01*
Y0242833D01*
X0267446D01*
Y0246783D01*
D02*
G37*
G36*
Y0241833D02*
X0263496D01*
Y0237883D01*
X0267446D01*
Y0241833D01*
D02*
G37*
G36*
X0297076Y0241433D02*
X0295576D01*
Y0239933D01*
X0297076D01*
Y0241433D01*
D02*
G37*
G36*
X0294576D02*
X0293076D01*
Y0239933D01*
X0294576D01*
Y0241433D01*
D02*
G37*
G36*
X0290616D02*
X0289116D01*
Y0239933D01*
X0290616D01*
Y0241433D01*
D02*
G37*
G36*
X0352496Y0246783D02*
X0348546D01*
Y0242833D01*
X0352496D01*
Y0246783D01*
D02*
G37*
G36*
Y0241833D02*
X0348546D01*
Y0237883D01*
X0352496D01*
Y0241833D01*
D02*
G37*
G36*
X0336449Y0214413D02*
X0332996D01*
Y0211663D01*
X0336449D01*
Y0214413D01*
D02*
G37*
G36*
X0287449D02*
X0283996D01*
Y0211663D01*
X0287449D01*
Y0214413D01*
D02*
G37*
G36*
X0331996D02*
X0328543D01*
Y0211663D01*
X0331996D01*
Y0214413D01*
D02*
G37*
G36*
X0282996D02*
X0279543D01*
Y0211663D01*
X0282996D01*
Y0214413D01*
D02*
G37*
G36*
X0348996Y0223618D02*
X0347575Y0223478D01*
X0346208Y0223063D01*
X0344949Y0222390D01*
X0343845Y0221484D01*
X0342939Y0220380D01*
X0342266Y0219121D01*
X0341851Y0217754D01*
X0341711Y0216333D01*
X0341851Y0214911D01*
X0342266Y0213545D01*
X0342939Y0212285D01*
X0343845Y0211181D01*
X0344949Y0210275D01*
X0346208Y0209602D01*
X0347575Y0209188D01*
X0348996Y0209048D01*
X0350417Y0209188D01*
X0351784Y0209602D01*
X0353043Y0210275D01*
X0354147Y0211181D01*
X0355053Y0212285D01*
X0355727Y0213545D01*
X0356141Y0214911D01*
X0356281Y0216333D01*
X0356141Y0217754D01*
X0355727Y0219121D01*
X0355053Y0220380D01*
X0354147Y0221484D01*
X0353043Y0222390D01*
X0351784Y0223063D01*
X0350417Y0223478D01*
X0348996Y0223618D01*
D02*
G37*
G36*
X0266996D02*
X0265575Y0223478D01*
X0264208Y0223063D01*
X0262949Y0222390D01*
X0261845Y0221484D01*
X0260939Y0220380D01*
X0260265Y0219121D01*
X0259851Y0217754D01*
X0259711Y0216333D01*
X0259851Y0214911D01*
X0260265Y0213545D01*
X0260939Y0212285D01*
X0261845Y0211181D01*
X0262949Y0210275D01*
X0264208Y0209602D01*
X0265575Y0209188D01*
X0266996Y0209048D01*
X0268417Y0209188D01*
X0269784Y0209602D01*
X0271043Y0210275D01*
X0272147Y0211181D01*
X0273053Y0212285D01*
X0273727Y0213545D01*
X0274141Y0214911D01*
X0274281Y0216333D01*
X0274141Y0217754D01*
X0273727Y0219121D01*
X0273053Y0220380D01*
X0272147Y0221484D01*
X0271043Y0222390D01*
X0269784Y0223063D01*
X0268417Y0223478D01*
X0266996Y0223618D01*
D02*
G37*
%LPD*%
D10*
X0289296Y0294788D02*
D03*
X0293296D02*
D03*
X0328720Y0274426D02*
D03*
X0324721D02*
D03*
X0289672Y0259339D02*
D03*
X0293672D02*
D03*
X0287272Y0290739D02*
D03*
X0291272D02*
D03*
D11*
X0316633Y0255274D02*
D03*
Y0235589D02*
D03*
X0314665D02*
D03*
X0312696D02*
D03*
X0310728D02*
D03*
X0308759D02*
D03*
X0306791D02*
D03*
Y0255274D02*
D03*
X0308759D02*
D03*
X0310728D02*
D03*
X0312696D02*
D03*
X0314665D02*
D03*
X0318602D02*
D03*
D12*
X0302854Y0243463D02*
D03*
X0322539Y0251337D02*
D03*
Y0249369D02*
D03*
Y0247400D02*
D03*
Y0245432D02*
D03*
Y0243463D02*
D03*
Y0241495D02*
D03*
X0302854Y0239526D02*
D03*
Y0241495D02*
D03*
Y0245432D02*
D03*
Y0247400D02*
D03*
Y0249369D02*
D03*
Y0251337D02*
D03*
D13*
X0322538Y0239528D02*
D03*
D14*
X0318601Y0235591D02*
D03*
D15*
X0312696Y0245432D02*
D03*
D16*
X0281196Y0266933D02*
D03*
Y0262933D02*
D03*
X0271396Y0373833D02*
D03*
Y0377833D02*
D03*
X0294959Y0266857D02*
D03*
Y0262857D02*
D03*
X0327552Y0266857D02*
D03*
Y0262857D02*
D03*
X0340589D02*
D03*
Y0266857D02*
D03*
X0321033Y0262857D02*
D03*
Y0266857D02*
D03*
X0272296Y0340933D02*
D03*
Y0344933D02*
D03*
X0314515Y0262895D02*
D03*
Y0266895D02*
D03*
X0271796Y0364633D02*
D03*
Y0368633D02*
D03*
X0334071Y0262857D02*
D03*
Y0266857D02*
D03*
X0343596Y0312933D02*
D03*
Y0316933D02*
D03*
Y0324283D02*
D03*
Y0328283D02*
D03*
Y0337633D02*
D03*
Y0333633D02*
D03*
X0285696Y0266833D02*
D03*
Y0262833D02*
D03*
X0275403Y0266857D02*
D03*
Y0262857D02*
D03*
X0301477D02*
D03*
Y0266857D02*
D03*
X0288616Y0245933D02*
D03*
Y0241933D02*
D03*
X0295076Y0245933D02*
D03*
Y0241933D02*
D03*
X0307996Y0262895D02*
D03*
Y0266895D02*
D03*
X0344489Y0358008D02*
D03*
Y0362008D02*
D03*
X0343589Y0343908D02*
D03*
Y0347908D02*
D03*
D17*
X0333109Y0274721D02*
D03*
X0340589Y0274721D02*
D03*
X0336849Y0283579D02*
D03*
Y0245817D02*
D03*
X0333109Y0254675D02*
D03*
X0340589Y0254675D02*
D03*
D18*
X0302896Y0225333D02*
D03*
X0310546D02*
D03*
X0313096D02*
D03*
X0307996D02*
D03*
X0305446D02*
D03*
D19*
X0336736Y0309157D02*
D03*
Y0317031D02*
D03*
Y0324905D02*
D03*
Y0332779D02*
D03*
Y0340653D02*
D03*
Y0348527D02*
D03*
Y0356401D02*
D03*
Y0364275D02*
D03*
X0279256D02*
D03*
Y0356401D02*
D03*
Y0348527D02*
D03*
Y0340653D02*
D03*
Y0332779D02*
D03*
Y0324905D02*
D03*
Y0317031D02*
D03*
Y0309157D02*
D03*
D20*
X0288311Y0304433D02*
D03*
X0296185D02*
D03*
X0304059D02*
D03*
X0311933D02*
D03*
X0319807D02*
D03*
X0327681D02*
D03*
D21*
X0332496Y0211163D02*
D03*
Y0227502D02*
D03*
X0283496Y0211163D02*
D03*
Y0227502D02*
D03*
D22*
X0288747Y0254633D02*
D03*
X0295046D02*
D03*
X0273496Y0229789D02*
D03*
Y0236876D02*
D03*
D23*
X0279096Y0279827D02*
D03*
Y0291638D02*
D03*
D24*
X0291296Y0275852D02*
D03*
Y0283252D02*
D03*
D25*
X0277296Y0241443D02*
D03*
Y0250222D02*
D03*
D26*
X0271796Y0350411D02*
D03*
Y0360254D02*
D03*
D27*
X0301876Y0294788D02*
D03*
Y0285733D02*
D03*
Y0276677D02*
D03*
D28*
X0324317Y0285733D02*
D03*
D29*
X0271496Y0253433D02*
X0280921Y0262857D01*
X0264096Y0253433D02*
X0271496D01*
X0262996Y0252333D02*
X0264096Y0253433D01*
X0280921Y0262857D02*
X0285696D01*
X0272096Y0364633D02*
X0274496Y0362233D01*
Y0359733D02*
Y0362233D01*
Y0359733D02*
X0277828Y0356401D01*
X0299396Y0269633D02*
X0301477Y0267551D01*
X0284697Y0269633D02*
X0299396D01*
X0281921Y0266857D02*
X0284697Y0269633D01*
X0301477Y0261914D02*
Y0262857D01*
X0295046Y0255482D02*
X0301477Y0261914D01*
X0295046Y0254633D02*
Y0255482D01*
X0275403Y0266857D02*
X0281921D01*
X0262996Y0262333D02*
X0274878D01*
X0275403Y0262857D01*
X0286296Y0266857D02*
X0294996D01*
X0348296Y0367633D02*
X0352996Y0372333D01*
X0343596Y0324033D02*
Y0324283D01*
X0340596Y0321033D02*
X0343596Y0324033D01*
X0279256Y0340653D02*
X0283996D01*
X0305616D01*
X0301477Y0266857D02*
Y0267514D01*
X0303296Y0269333D01*
X0301477Y0266857D02*
Y0267551D01*
X0271796Y0364633D02*
X0272096D01*
X0277828Y0356401D02*
X0277865D01*
X0279256D01*
X0341596Y0337633D02*
X0343596D01*
X0332596Y0367633D02*
X0348296D01*
X0305616Y0340653D02*
X0332596Y0367633D01*
X0303296Y0269333D02*
X0313296D01*
X0315496Y0271533D01*
D30*
X0280596Y0262532D02*
X0281596D01*
X0271896Y0253833D02*
X0280596Y0262532D01*
X0271896Y0248533D02*
Y0253833D01*
X0271296Y0310733D02*
X0274396Y0313833D01*
X0271296Y0303233D02*
Y0310733D01*
X0270396Y0302333D02*
X0271296Y0303233D01*
X0274396Y0313833D02*
X0284076D01*
X0273096Y0315433D02*
Y0318033D01*
X0269996Y0312333D02*
X0273096Y0315433D01*
X0262996Y0312333D02*
X0269996D01*
X0283996Y0367633D02*
X0284896Y0366733D01*
X0278096Y0367633D02*
X0283996D01*
X0276296Y0369433D02*
X0278096Y0367633D01*
X0341596Y0288326D02*
Y0311448D01*
X0284696Y0299933D02*
X0320796D01*
X0293185Y0301433D02*
X0296185Y0304433D01*
X0286086Y0301433D02*
X0293185D01*
X0288747Y0254633D02*
X0288965D01*
X0293672Y0259339D01*
X0292320Y0262857D02*
X0294959D01*
X0289672Y0260208D02*
X0292320Y0262857D01*
X0289672Y0259339D02*
Y0260208D01*
X0283176Y0254633D02*
X0287695Y0259152D01*
X0289484D02*
X0289672Y0259339D01*
X0287695Y0259152D02*
X0289484D01*
X0286796Y0260233D02*
X0291796Y0265233D01*
X0281596Y0262532D02*
X0281921Y0262857D01*
X0282896Y0254633D02*
X0283176D01*
X0291796Y0265233D02*
Y0266857D01*
X0282176Y0260233D02*
X0286796D01*
X0273696Y0251753D02*
X0282176Y0260233D01*
X0280696Y0232533D02*
Y0242733D01*
X0278796Y0230633D02*
X0280696Y0232533D01*
X0278096Y0245333D02*
X0280696Y0242733D01*
X0278796Y0223833D02*
Y0230633D01*
X0334071Y0269107D02*
X0336849Y0271886D01*
Y0283579D01*
X0340589Y0266857D02*
Y0274721D01*
X0334071Y0266857D02*
Y0269107D01*
X0340589Y0254675D02*
Y0262857D01*
X0334071Y0260958D02*
Y0262857D01*
Y0260958D02*
X0336796Y0258233D01*
Y0252333D02*
Y0258233D01*
Y0252333D02*
X0340996Y0248133D01*
Y0236002D02*
Y0248133D01*
X0332496Y0227502D02*
X0340996Y0236002D01*
X0327552Y0260232D02*
Y0262857D01*
Y0260232D02*
X0333109Y0254675D01*
X0283796Y0300833D02*
X0284696Y0299933D01*
X0283796Y0300833D02*
Y0311533D01*
X0285196Y0302323D02*
Y0312713D01*
X0284076Y0313833D02*
X0285196Y0312713D01*
X0262996Y0292333D02*
X0271296D01*
X0282896Y0312433D02*
X0283796Y0311533D01*
X0316707Y0301333D02*
X0319807Y0304433D01*
X0301396Y0301333D02*
X0316707D01*
X0262996Y0302333D02*
X0270396D01*
X0275556Y0312433D02*
X0282896D01*
X0262996Y0322333D02*
X0274696D01*
X0275396Y0321633D01*
X0273096Y0318033D02*
X0275296Y0320233D01*
X0285196Y0302323D02*
X0286086Y0301433D01*
X0300296Y0302433D02*
X0301396Y0301333D01*
X0336849Y0239686D02*
Y0245817D01*
X0283496Y0227502D02*
Y0238233D01*
X0282596Y0239133D02*
X0283496Y0238233D01*
X0282596Y0239133D02*
Y0243133D01*
X0278696Y0247033D02*
X0282596Y0243133D01*
X0275596Y0247033D02*
X0278696D01*
X0273696Y0248933D02*
X0275596Y0247033D01*
X0273696Y0248933D02*
Y0251753D01*
X0278796Y0223833D02*
X0282096Y0220533D01*
X0327796Y0230633D02*
X0336849Y0239686D01*
X0271896Y0248533D02*
X0275096Y0245333D01*
X0278096D01*
X0322539Y0243463D02*
X0330727D01*
X0333109Y0245846D01*
Y0254675D01*
X0331865Y0356401D02*
X0336736D01*
X0332743Y0332779D02*
X0336736D01*
X0279256Y0317031D02*
X0284496D01*
X0279256Y0324905D02*
X0284496D01*
X0279256Y0332779D02*
X0284496D01*
X0329296Y0353833D02*
X0331865Y0356401D01*
X0332096Y0332133D02*
X0332743Y0332779D01*
X0329296Y0313433D02*
Y0353833D01*
X0330696Y0314013D02*
Y0350833D01*
X0332096Y0314593D02*
Y0332133D01*
Y0314593D02*
X0333456Y0313233D01*
X0329296Y0313433D02*
X0331096Y0311633D01*
X0330696Y0314013D02*
X0332496Y0312213D01*
X0279396Y0344633D02*
Y0348387D01*
X0284896Y0346133D02*
Y0366733D01*
X0283346Y0344583D02*
X0284896Y0346133D01*
X0273196Y0310073D02*
X0275556Y0312433D01*
X0273196Y0294233D02*
Y0310073D01*
X0271296Y0292333D02*
X0273196Y0294233D01*
X0336849Y0283579D02*
X0341596Y0288326D01*
X0325296Y0304433D02*
X0327681D01*
X0320796Y0299933D02*
X0325296Y0304433D01*
X0308733Y0307633D02*
X0311933Y0304433D01*
X0275296Y0329433D02*
X0285196D01*
X0288496Y0326133D01*
X0284616Y0328033D02*
X0286996Y0325653D01*
X0275396Y0321633D02*
X0285030D01*
X0275296Y0320233D02*
X0284450D01*
X0288311Y0316371D01*
Y0304433D02*
Y0316371D01*
X0285030Y0321633D02*
X0300296Y0306366D01*
Y0302433D02*
Y0306366D01*
X0304059Y0304433D02*
Y0304670D01*
X0288496Y0322133D02*
Y0326133D01*
Y0322133D02*
X0302996Y0307633D01*
X0308733D01*
X0302416Y0306233D02*
X0302496D01*
X0304059Y0304670D01*
X0286996Y0321653D02*
X0302416Y0306233D01*
X0286996Y0321653D02*
Y0325653D01*
X0321033Y0260895D02*
Y0262857D01*
X0324296Y0259613D02*
X0329896Y0254013D01*
X0321033Y0260895D02*
X0328496Y0253433D01*
X0322539Y0247400D02*
X0327264D01*
X0328496Y0248633D01*
Y0253433D01*
X0322539Y0245432D02*
X0327295D01*
X0329896Y0248033D01*
Y0254013D01*
X0282096Y0220533D02*
X0324696D01*
X0327796Y0223633D01*
Y0230633D01*
X0322539Y0251337D02*
X0326196D01*
X0337096Y0261733D02*
Y0263364D01*
X0340589Y0266857D01*
X0331096Y0280133D02*
Y0311633D01*
X0332496Y0279432D02*
Y0312213D01*
X0333456Y0313233D02*
X0339811D01*
X0341596Y0311448D01*
X0262996Y0332333D02*
X0267296Y0328033D01*
X0284616D01*
X0262996Y0341733D02*
Y0342333D01*
Y0341733D02*
X0275296Y0329433D01*
X0336736Y0364275D02*
X0340833D01*
X0333246Y0353383D02*
X0340321D01*
X0341796Y0354858D01*
X0330696Y0350833D02*
X0333246Y0353383D01*
X0340833Y0364275D02*
X0341796Y0363312D01*
Y0354858D02*
Y0363312D01*
X0323896Y0277733D02*
X0328696D01*
X0321033Y0266857D02*
Y0270070D01*
X0321096Y0270133D01*
X0328696Y0277733D02*
X0331096Y0280133D01*
X0324296Y0264133D02*
Y0265033D01*
X0325396Y0266133D01*
X0324296Y0259613D02*
Y0264133D01*
X0329297Y0276232D02*
X0332496Y0279432D01*
X0327552Y0266857D02*
Y0268288D01*
X0320971Y0270258D02*
X0321096Y0270133D01*
X0320971Y0270258D02*
Y0274807D01*
X0333109Y0273845D02*
Y0274721D01*
X0327552Y0268288D02*
X0333109Y0273845D01*
X0325396Y0266133D02*
Y0268186D01*
X0329297Y0272087D01*
Y0276232D01*
X0320971Y0274807D02*
X0323896Y0277733D01*
X0321096Y0269833D02*
Y0270133D01*
D31*
X0268096Y0372333D02*
X0271796Y0368633D01*
X0262996Y0372333D02*
X0268096D01*
X0279256Y0364275D02*
Y0366252D01*
X0273065Y0372443D02*
X0279256Y0366252D01*
X0347296Y0278033D02*
Y0314233D01*
X0344496Y0292533D02*
Y0302233D01*
X0317596Y0290233D02*
X0317696Y0290333D01*
Y0293133D01*
X0313596Y0273933D02*
Y0277133D01*
X0318196Y0264733D02*
Y0277833D01*
X0273496Y0237643D02*
X0277296Y0241443D01*
X0273496Y0236876D02*
Y0237643D01*
X0310546Y0225333D02*
Y0228633D01*
X0313096Y0225333D02*
Y0230333D01*
X0305446Y0225333D02*
Y0230083D01*
X0307996Y0225333D02*
Y0230133D01*
X0336736Y0324905D02*
X0337769D01*
X0341146Y0328283D01*
X0343596D01*
X0336736Y0317031D02*
X0344498D01*
X0336736Y0340653D02*
X0338017D01*
X0288616Y0245933D02*
X0295076D01*
X0343596Y0328283D02*
X0348946D01*
X0352996Y0332333D01*
X0314515Y0262895D02*
X0316358D01*
X0318196Y0264733D01*
X0262996Y0272333D02*
X0282996D01*
X0302896Y0225333D02*
Y0228633D01*
X0277296Y0250222D02*
X0281506D01*
X0285796Y0245933D01*
X0288616D01*
X0293896Y0237633D02*
X0302896Y0228633D01*
X0277296Y0250222D02*
X0278306D01*
X0284396Y0240633D02*
X0287396Y0237633D01*
X0284396Y0240633D02*
Y0244133D01*
X0278306Y0250222D02*
X0284396Y0244133D01*
X0336736Y0332779D02*
X0340742D01*
X0347096Y0322333D02*
X0352996D01*
X0345796Y0321033D02*
X0347096Y0322333D01*
X0343096Y0321033D02*
X0345796D01*
X0340596D02*
X0343096D01*
X0282996Y0272333D02*
X0283896Y0271433D01*
X0311096D01*
X0313596Y0273933D01*
X0317696Y0293133D02*
X0325296Y0300733D01*
X0327996D01*
X0344496Y0289833D02*
Y0292533D01*
X0347296Y0278033D02*
X0352996Y0272333D01*
X0344498Y0317031D02*
X0347296Y0314233D01*
X0344496Y0235733D02*
Y0289833D01*
Y0235733D02*
X0347896Y0232333D01*
X0352996D01*
X0287396Y0237633D02*
X0291396D01*
X0293896D01*
X0291396D02*
X0291496Y0237533D01*
Y0233933D02*
Y0237533D01*
X0271396Y0373833D02*
X0271896D01*
X0273065Y0372664D01*
Y0372443D02*
Y0372664D01*
X0272396Y0345600D02*
Y0352933D01*
X0274396D01*
X0277865Y0356401D01*
X0262996Y0362333D02*
X0272396Y0352933D01*
X0352996Y0350133D02*
Y0352333D01*
X0340742Y0332779D02*
X0341596Y0333633D01*
X0344296D01*
X0352996Y0342333D01*
X0338017Y0340653D02*
X0338696Y0341333D01*
X0346596D02*
X0347596Y0342333D01*
Y0344733D01*
X0352996Y0350133D01*
X0344489Y0362008D02*
Y0364826D01*
X0344383Y0364933D02*
X0344489Y0364826D01*
X0343596Y0341333D02*
Y0343902D01*
X0343589Y0343908D02*
X0343596Y0343902D01*
X0338696Y0341333D02*
X0343596D01*
X0346596D01*
X0344489Y0358008D02*
X0346315Y0356183D01*
X0346446D01*
X0338990Y0348727D02*
X0346446Y0356183D01*
X0352796Y0362533D01*
X0324573Y0272604D02*
X0324721Y0272457D01*
X0324520Y0272604D02*
X0324573D01*
X0324721Y0272457D02*
Y0274426D01*
D32*
X0291272Y0290933D02*
X0299696D01*
X0291272D02*
Y0291357D01*
Y0290739D02*
Y0290933D01*
X0289296Y0293333D02*
Y0294788D01*
Y0293333D02*
X0291272Y0291357D01*
X0299696Y0290933D02*
X0301876Y0288753D01*
Y0285733D02*
Y0288753D01*
X0293296Y0294788D02*
Y0297633D01*
X0307996Y0262895D02*
X0314515D01*
X0344196Y0306366D02*
Y0311933D01*
X0343596Y0312533D02*
X0344196Y0311933D01*
X0343596Y0312533D02*
Y0312933D01*
X0288616Y0241933D02*
X0291916D01*
X0295076D02*
X0298376D01*
X0307996Y0266895D02*
X0314515D01*
X0304696D02*
X0307996D01*
D33*
X0268186Y0232333D02*
X0270729Y0229789D01*
X0262996Y0232333D02*
X0268186D01*
X0270729Y0229789D02*
X0273496D01*
X0301876Y0285733D02*
X0324317D01*
X0273653Y0229789D02*
X0278146Y0234283D01*
X0273496Y0229789D02*
X0273653D01*
D34*
X0310728Y0255274D02*
Y0258601D01*
X0312696Y0255274D02*
Y0258633D01*
X0299201Y0251337D02*
X0302854D01*
X0295076Y0245933D02*
Y0247213D01*
X0299201Y0251337D01*
X0332496Y0211163D02*
Y0215316D01*
X0283496Y0211163D02*
Y0215316D01*
X0332496Y0211133D02*
X0337449D01*
X0327543Y0211163D02*
X0332496D01*
X0278543Y0211194D02*
X0283496D01*
Y0211163D02*
X0288449D01*
X0337896Y0305033D02*
Y0309033D01*
X0334796Y0305033D02*
Y0309033D01*
X0336296Y0303433D02*
Y0308717D01*
X0336736Y0309157D01*
X0314665Y0247401D02*
Y0255274D01*
X0302854Y0251337D02*
Y0254190D01*
X0303938Y0255274D01*
X0306791D01*
X0275696Y0373533D02*
Y0376033D01*
X0273896Y0377833D02*
X0275696Y0376033D01*
X0271396Y0377833D02*
X0273896D01*
D35*
X0312696Y0258633D02*
X0313196Y0259133D01*
X0310196D02*
X0310728Y0258601D01*
D36*
X0292046Y0270833D02*
D03*
D37*
X0314396Y0278333D02*
D03*
D38*
X0284396Y0293083D02*
D03*
D39*
X0307996Y0213733D02*
D03*
D40*
X0296346Y0223783D02*
D03*
X0319646D02*
D03*
D41*
X0279246Y0300533D02*
D03*
D42*
X0297446Y0276633D02*
D03*
D43*
X0348996Y0388333D02*
D03*
X0266996D02*
D03*
Y0216333D02*
D03*
X0348996D02*
D03*
D44*
X0317546Y0225333D02*
D03*
X0298446D02*
D03*
D45*
X0293696Y0214933D02*
D03*
X0322296D02*
D03*
D46*
X0352996Y0232333D02*
D03*
Y0272333D02*
D03*
Y0262333D02*
D03*
Y0252333D02*
D03*
Y0282333D02*
D03*
Y0292333D02*
D03*
Y0302333D02*
D03*
Y0372333D02*
D03*
Y0362333D02*
D03*
Y0352333D02*
D03*
Y0342333D02*
D03*
Y0332333D02*
D03*
Y0322333D02*
D03*
X0262996Y0232333D02*
D03*
Y0272333D02*
D03*
Y0262333D02*
D03*
Y0252333D02*
D03*
Y0292333D02*
D03*
Y0302333D02*
D03*
Y0312333D02*
D03*
Y0372333D02*
D03*
Y0362333D02*
D03*
Y0352333D02*
D03*
Y0342333D02*
D03*
Y0332333D02*
D03*
Y0322333D02*
D03*
D47*
X0352996Y0242333D02*
D03*
Y0312333D02*
D03*
X0262996Y0242333D02*
D03*
Y0282333D02*
D03*
D48*
X0344496Y0302433D02*
D03*
X0312996Y0278533D02*
D03*
X0293296Y0297633D02*
D03*
X0296096Y0294333D02*
D03*
X0316196Y0278533D02*
D03*
X0317596Y0290233D02*
D03*
X0317696Y0293133D02*
D03*
X0284296Y0295633D02*
D03*
Y0292733D02*
D03*
X0282896Y0254633D02*
D03*
X0278146Y0234283D02*
D03*
X0272196Y0223013D02*
D03*
X0344196Y0306366D02*
D03*
X0287796Y0330333D02*
D03*
X0290696Y0327333D02*
D03*
X0298496Y0237033D02*
D03*
Y0247033D02*
D03*
X0303096Y0236033D02*
D03*
Y0232933D02*
D03*
X0336996Y0288233D02*
D03*
X0334796D02*
D03*
X0336996Y0290533D02*
D03*
X0339296D02*
D03*
X0334796D02*
D03*
X0315646Y0209933D02*
D03*
X0312496D02*
D03*
X0309346D02*
D03*
X0306196D02*
D03*
X0303046D02*
D03*
X0299896D02*
D03*
X0315646Y0213833D02*
D03*
X0312496D02*
D03*
X0309346D02*
D03*
X0306196D02*
D03*
X0303046D02*
D03*
X0299896D02*
D03*
Y0217733D02*
D03*
X0303046D02*
D03*
X0306196D02*
D03*
X0309346D02*
D03*
X0312496D02*
D03*
X0315646D02*
D03*
X0305196Y0230333D02*
D03*
X0313196Y0259133D02*
D03*
X0308196Y0230333D02*
D03*
X0310196Y0259133D02*
D03*
X0284496Y0324905D02*
D03*
Y0317031D02*
D03*
Y0332779D02*
D03*
X0327996Y0300733D02*
D03*
X0340596Y0321033D02*
D03*
Y0336933D02*
D03*
X0325296Y0300733D02*
D03*
X0343096Y0321033D02*
D03*
X0279396Y0344633D02*
D03*
X0283346Y0344583D02*
D03*
X0283996Y0340653D02*
D03*
X0324296Y0264133D02*
D03*
X0287277Y0277072D02*
D03*
Y0274514D02*
D03*
X0326196Y0251333D02*
D03*
X0337096Y0261733D02*
D03*
X0332496Y0215316D02*
D03*
X0283496D02*
D03*
X0337449Y0211133D02*
D03*
X0327543Y0211163D02*
D03*
X0278543Y0211194D02*
D03*
X0288449Y0211163D02*
D03*
X0337896Y0305033D02*
D03*
X0334796D02*
D03*
X0336296Y0303433D02*
D03*
X0279346Y0285533D02*
D03*
X0282671D02*
D03*
X0285996D02*
D03*
Y0281333D02*
D03*
X0272696Y0277133D02*
D03*
Y0281333D02*
D03*
Y0285533D02*
D03*
X0276021D02*
D03*
X0275696Y0373533D02*
D03*
X0269096Y0346733D02*
D03*
X0344196Y0309133D02*
D03*
X0291916Y0241933D02*
D03*
X0298376D02*
D03*
X0313096Y0230333D02*
D03*
X0311296Y0266895D02*
D03*
X0304696D02*
D03*
X0296096Y0297633D02*
D03*
X0308096D02*
D03*
Y0294333D02*
D03*
X0310646Y0297633D02*
D03*
Y0294333D02*
D03*
X0313196Y0297633D02*
D03*
Y0294333D02*
D03*
X0308096Y0250033D02*
D03*
Y0247333D02*
D03*
X0317296Y0246966D02*
D03*
X0314496D02*
D03*
X0317296Y0243899D02*
D03*
X0314496D02*
D03*
Y0240833D02*
D03*
X0317296D02*
D03*
Y0250033D02*
D03*
X0311696Y0240833D02*
D03*
X0314496Y0250033D02*
D03*
X0299396Y0314733D02*
D03*
X0303996Y0310133D02*
D03*
X0301696Y0312433D02*
D03*
X0296696Y0319433D02*
D03*
X0293596Y0322633D02*
D03*
X0307096Y0345633D02*
D03*
X0312096Y0350633D02*
D03*
X0309596Y0348133D02*
D03*
X0319596Y0358133D02*
D03*
X0322096Y0360633D02*
D03*
X0317096Y0355633D02*
D03*
X0314596Y0353133D02*
D03*
X0329596Y0368133D02*
D03*
X0332096Y0370633D02*
D03*
X0339596Y0373533D02*
D03*
X0327096Y0365633D02*
D03*
X0324596Y0363133D02*
D03*
X0325796Y0357433D02*
D03*
X0328296Y0359933D02*
D03*
X0330796Y0362433D02*
D03*
X0323296Y0354933D02*
D03*
X0320796Y0352433D02*
D03*
X0315796Y0347433D02*
D03*
X0313296Y0344933D02*
D03*
X0310796Y0342433D02*
D03*
X0318296Y0349933D02*
D03*
X0304496Y0337933D02*
D03*
X0300196D02*
D03*
X0308296Y0339933D02*
D03*
X0294696Y0330133D02*
D03*
X0297196Y0327633D02*
D03*
X0299696Y0325133D02*
D03*
X0292196Y0332633D02*
D03*
X0289696Y0335133D02*
D03*
X0304696Y0320133D02*
D03*
X0307196Y0317633D02*
D03*
X0302196Y0322633D02*
D03*
X0314696Y0310133D02*
D03*
X0312196Y0312633D02*
D03*
X0309696Y0315133D02*
D03*
X0287296Y0337933D02*
D03*
X0291596D02*
D03*
X0295896D02*
D03*
X0266396Y0347333D02*
D03*
X0295996Y0343133D02*
D03*
X0300296D02*
D03*
X0304596D02*
D03*
X0291696D02*
D03*
X0287296D02*
D03*
Y0347033D02*
D03*
Y0350933D02*
D03*
Y0354833D02*
D03*
Y0363433D02*
D03*
Y0366533D02*
D03*
Y0358733D02*
D03*
X0326896Y0337533D02*
D03*
Y0329733D02*
D03*
Y0333633D02*
D03*
Y0341433D02*
D03*
Y0345333D02*
D03*
Y0349233D02*
D03*
Y0353133D02*
D03*
Y0314133D02*
D03*
Y0310233D02*
D03*
Y0318033D02*
D03*
Y0321933D02*
D03*
Y0325833D02*
D03*
X0325396Y0373533D02*
D03*
X0328946D02*
D03*
X0336046D02*
D03*
X0332496D02*
D03*
X0307646D02*
D03*
X0314746D02*
D03*
X0321846D02*
D03*
X0318296D02*
D03*
X0343146D02*
D03*
X0286346D02*
D03*
X0300546D02*
D03*
X0293446D02*
D03*
X0282796D02*
D03*
X0279246D02*
D03*
X0300846Y0352233D02*
D03*
X0311196Y0373533D02*
D03*
X0304096D02*
D03*
X0296996D02*
D03*
X0289896D02*
D03*
X0347196Y0267933D02*
D03*
Y0257133D02*
D03*
Y0248433D02*
D03*
X0314396Y0366533D02*
D03*
X0300846D02*
D03*
X0347196Y0237233D02*
D03*
X0307896Y0359733D02*
D03*
X0342296Y0234033D02*
D03*
X0344796Y0231433D02*
D03*
X0339696D02*
D03*
X0292896Y0230999D02*
D03*
Y0227166D02*
D03*
X0289296Y0223333D02*
D03*
Y0230999D02*
D03*
X0296496D02*
D03*
X0300196Y0254633D02*
D03*
Y0257033D02*
D03*
X0303496Y0259133D02*
D03*
X0289296Y0227166D02*
D03*
X0333796Y0240733D02*
D03*
X0328096D02*
D03*
X0324696Y0224133D02*
D03*
X0322396Y0235933D02*
D03*
X0330496Y0238133D02*
D03*
X0322396Y0230333D02*
D03*
X0318396D02*
D03*
X0276496Y0223013D02*
D03*
X0267496Y0236733D02*
D03*
X0272696Y0243333D02*
D03*
X0268896Y0247433D02*
D03*
X0330296Y0222133D02*
D03*
X0335196D02*
D03*
X0284796Y0250933D02*
D03*
X0293396Y0249533D02*
D03*
X0271796Y0241033D02*
D03*
X0267396Y0227253D02*
D03*
X0344796D02*
D03*
X0354096Y0225533D02*
D03*
X0349396Y0267333D02*
D03*
X0261096Y0224833D02*
D03*
X0276496Y0218773D02*
D03*
Y0214533D02*
D03*
X0339696Y0227253D02*
D03*
Y0222133D02*
D03*
Y0216333D02*
D03*
X0291496Y0233933D02*
D03*
X0267496Y0367133D02*
D03*
X0344383Y0364933D02*
D03*
X0345096Y0349833D02*
D03*
X0324520Y0272604D02*
D03*
X0321096Y0269833D02*
D03*
X0315196Y0271533D02*
D03*
M02*
