G04 Layer_Physical_Order=2*
G04 Layer_Color=16711680*
%FSAX25Y25*%
%MOIN*%
G70*
G01*
G75*
%ADD30C,0.00700*%
%ADD31C,0.01500*%
%ADD33C,0.03000*%
%ADD35C,0.00600*%
%ADD43C,0.11500*%
%ADD44C,0.04724*%
%ADD45O,0.05906X0.07480*%
%ADD46C,0.06900*%
%ADD47R,0.06900X0.06900*%
%ADD48C,0.02362*%
%ADD49C,0.05906*%
G36*
X0348424Y0374231D02*
X0348173Y0373625D01*
X0348003Y0372333D01*
X0348173Y0371041D01*
X0348672Y0369836D01*
X0349466Y0368802D01*
X0350500Y0368009D01*
X0351479Y0367603D01*
Y0367062D01*
X0350500Y0366656D01*
X0349466Y0365863D01*
X0348672Y0364829D01*
X0348173Y0363625D01*
X0348003Y0362333D01*
X0348173Y0361040D01*
X0348672Y0359836D01*
X0349466Y0358802D01*
X0350500Y0358009D01*
X0351479Y0357603D01*
Y0357062D01*
X0350500Y0356657D01*
X0349466Y0355863D01*
X0348672Y0354829D01*
X0348173Y0353625D01*
X0348003Y0352333D01*
X0348173Y0351041D01*
X0348672Y0349836D01*
X0349466Y0348802D01*
X0350500Y0348009D01*
X0351479Y0347603D01*
Y0347062D01*
X0350500Y0346656D01*
X0349466Y0345863D01*
X0348672Y0344829D01*
X0348173Y0343625D01*
X0348003Y0342333D01*
X0348173Y0341040D01*
X0348672Y0339836D01*
X0349466Y0338802D01*
X0350500Y0338009D01*
X0351479Y0337603D01*
Y0337062D01*
X0350500Y0336656D01*
X0349466Y0335863D01*
X0348672Y0334829D01*
X0348173Y0333625D01*
X0348003Y0332333D01*
X0348173Y0331041D01*
X0348672Y0329836D01*
X0349466Y0328802D01*
X0350500Y0328009D01*
X0351479Y0327603D01*
Y0327062D01*
X0350500Y0326657D01*
X0349466Y0325863D01*
X0348672Y0324829D01*
X0348173Y0323625D01*
X0348003Y0322333D01*
X0348173Y0321041D01*
X0348672Y0319836D01*
X0349466Y0318802D01*
X0350500Y0318009D01*
X0351704Y0317510D01*
X0352996Y0317340D01*
X0354288Y0317510D01*
X0355492Y0318009D01*
X0356526Y0318802D01*
X0356707Y0319038D01*
X0357180Y0318877D01*
Y0316783D01*
X0353496D01*
Y0312333D01*
Y0307883D01*
X0357180D01*
Y0305789D01*
X0356707Y0305628D01*
X0356526Y0305863D01*
X0355492Y0306657D01*
X0354288Y0307155D01*
X0352996Y0307325D01*
X0351704Y0307155D01*
X0350500Y0306657D01*
X0349466Y0305863D01*
X0348672Y0304829D01*
X0348173Y0303625D01*
X0348003Y0302333D01*
X0348173Y0301041D01*
X0348603Y0300003D01*
X0348396Y0299591D01*
X0348298Y0299503D01*
X0340065D01*
X0339857Y0300003D01*
X0340840Y0300985D01*
X0340996Y0300954D01*
X0343323D01*
X0343762Y0300661D01*
X0344496Y0300515D01*
X0345230Y0300661D01*
X0345852Y0301077D01*
X0346268Y0301699D01*
X0346414Y0302433D01*
X0346268Y0303167D01*
X0345852Y0303789D01*
X0345230Y0304205D01*
X0344496Y0304351D01*
X0343762Y0304205D01*
X0343323Y0303911D01*
X0342074D01*
Y0318897D01*
X0342575Y0319218D01*
X0343096Y0319115D01*
X0343830Y0319261D01*
X0344452Y0319676D01*
X0344868Y0320299D01*
X0345014Y0321033D01*
X0344868Y0321767D01*
X0344452Y0322389D01*
X0343830Y0322805D01*
X0343096Y0322951D01*
X0342575Y0322847D01*
X0342074Y0323168D01*
Y0335759D01*
X0342368Y0336199D01*
X0342514Y0336933D01*
X0342368Y0337667D01*
X0342074Y0338106D01*
Y0348354D01*
X0343923D01*
X0344362Y0348061D01*
X0345096Y0347915D01*
X0345830Y0348061D01*
X0346452Y0348477D01*
X0346868Y0349099D01*
X0347014Y0349833D01*
X0346868Y0350567D01*
X0346452Y0351189D01*
X0345830Y0351605D01*
X0345096Y0351751D01*
X0344362Y0351605D01*
X0343923Y0351311D01*
X0342074D01*
Y0360534D01*
X0344598Y0363058D01*
X0345117Y0363161D01*
X0345739Y0363577D01*
X0346155Y0364199D01*
X0346301Y0364933D01*
X0346155Y0365667D01*
X0345739Y0366289D01*
X0345117Y0366705D01*
X0344383Y0366851D01*
X0343649Y0366705D01*
X0343026Y0366289D01*
X0342611Y0365667D01*
X0342508Y0365148D01*
X0339551Y0362192D01*
X0339230Y0361712D01*
X0339118Y0361146D01*
Y0349833D01*
Y0338106D01*
X0338824Y0337667D01*
X0338678Y0336933D01*
X0338824Y0336199D01*
X0339118Y0335759D01*
Y0322206D01*
X0338824Y0321767D01*
X0338678Y0321033D01*
X0338824Y0320299D01*
X0339118Y0319859D01*
Y0303445D01*
X0337884Y0302211D01*
X0329169D01*
X0328730Y0302505D01*
X0327996Y0302651D01*
X0327262Y0302505D01*
X0326823Y0302211D01*
X0326469D01*
X0326030Y0302505D01*
X0325296Y0302651D01*
X0324562Y0302505D01*
X0323940Y0302089D01*
X0323524Y0301467D01*
X0323378Y0300733D01*
X0323443Y0300407D01*
X0322982Y0300161D01*
X0289607Y0333536D01*
X0289259Y0333768D01*
X0288850Y0333850D01*
X0286043D01*
X0285852Y0334135D01*
X0285230Y0334551D01*
X0284496Y0334697D01*
X0283762Y0334551D01*
X0283140Y0334135D01*
X0282724Y0333513D01*
X0282578Y0332779D01*
X0282724Y0332045D01*
X0283140Y0331423D01*
X0283762Y0331007D01*
X0284496Y0330861D01*
X0285230Y0331007D01*
X0285852Y0331423D01*
X0286043Y0331709D01*
X0288406D01*
X0293677Y0326438D01*
X0293486Y0325976D01*
X0286043D01*
X0285852Y0326261D01*
X0285230Y0326677D01*
X0284496Y0326823D01*
X0283762Y0326677D01*
X0283140Y0326261D01*
X0282724Y0325639D01*
X0282578Y0324905D01*
X0282724Y0324171D01*
X0283140Y0323549D01*
X0283762Y0323133D01*
X0284496Y0322987D01*
X0285230Y0323133D01*
X0285852Y0323549D01*
X0286043Y0323834D01*
X0294300D01*
X0299571Y0318564D01*
X0299380Y0318102D01*
X0286043D01*
X0285852Y0318387D01*
X0285230Y0318803D01*
X0284496Y0318949D01*
X0283762Y0318803D01*
X0283140Y0318387D01*
X0282724Y0317765D01*
X0282578Y0317031D01*
X0282724Y0316297D01*
X0283140Y0315675D01*
X0283762Y0315259D01*
X0284496Y0315113D01*
X0285230Y0315259D01*
X0285852Y0315675D01*
X0286043Y0315961D01*
X0300154D01*
X0321239Y0294876D01*
X0321239Y0294876D01*
X0321586Y0294644D01*
X0321996Y0294562D01*
X0321996Y0294562D01*
X0346853D01*
X0347426Y0293989D01*
Y0286833D01*
X0347507Y0286423D01*
X0347739Y0286076D01*
X0348808Y0285006D01*
X0348672Y0284829D01*
X0348173Y0283625D01*
X0348003Y0282333D01*
X0348173Y0281041D01*
X0348672Y0279836D01*
X0349466Y0278802D01*
X0350500Y0278009D01*
X0351479Y0277603D01*
Y0277062D01*
X0350500Y0276657D01*
X0349466Y0275863D01*
X0348672Y0274829D01*
X0348173Y0273625D01*
X0348003Y0272333D01*
X0348173Y0271041D01*
X0348672Y0269836D01*
X0349466Y0268802D01*
X0350500Y0268009D01*
X0351479Y0267603D01*
Y0267062D01*
X0350500Y0266656D01*
X0349466Y0265863D01*
X0348672Y0264829D01*
X0348499Y0264411D01*
X0348009Y0264314D01*
X0346033Y0266290D01*
X0345686Y0266522D01*
X0345276Y0266603D01*
X0326839D01*
X0323000Y0270443D01*
X0323121Y0270911D01*
X0323179Y0270980D01*
X0323480Y0271037D01*
X0323786Y0270832D01*
X0324520Y0270686D01*
X0325254Y0270832D01*
X0325877Y0271248D01*
X0326292Y0271870D01*
X0326438Y0272604D01*
X0326292Y0273338D01*
X0325877Y0273960D01*
X0325254Y0274376D01*
X0324520Y0274522D01*
X0323786Y0274376D01*
X0323347Y0274082D01*
X0316367D01*
X0315802Y0273970D01*
X0315322Y0273649D01*
X0315105Y0273432D01*
X0314462Y0273305D01*
X0313840Y0272889D01*
X0313424Y0272267D01*
X0313278Y0271533D01*
X0313424Y0270799D01*
X0313840Y0270177D01*
X0314462Y0269761D01*
X0315196Y0269615D01*
X0315930Y0269761D01*
X0316552Y0270177D01*
X0316968Y0270799D01*
X0317033Y0271126D01*
X0319167D01*
X0319403Y0270685D01*
X0319324Y0270567D01*
X0319178Y0269833D01*
X0319324Y0269099D01*
X0319740Y0268477D01*
X0320362Y0268061D01*
X0321096Y0267915D01*
X0321830Y0268061D01*
X0322144Y0268271D01*
X0323928Y0266487D01*
X0323763Y0265945D01*
X0323562Y0265905D01*
X0322940Y0265489D01*
X0322524Y0264867D01*
X0322378Y0264133D01*
X0322524Y0263399D01*
X0322940Y0262776D01*
X0323562Y0262361D01*
X0324296Y0262215D01*
X0325030Y0262361D01*
X0325652Y0262776D01*
X0325843Y0263062D01*
X0335192D01*
X0335427Y0262621D01*
X0335324Y0262467D01*
X0335301Y0262352D01*
X0326199Y0253250D01*
X0326196Y0253251D01*
X0325462Y0253105D01*
X0324840Y0252689D01*
X0324424Y0252067D01*
X0324278Y0251333D01*
X0324424Y0250599D01*
X0324840Y0249976D01*
X0325462Y0249561D01*
X0326196Y0249415D01*
X0326930Y0249561D01*
X0327552Y0249976D01*
X0327968Y0250599D01*
X0328114Y0251333D01*
X0327981Y0252003D01*
X0336108Y0260131D01*
X0336362Y0259961D01*
X0337096Y0259815D01*
X0337830Y0259961D01*
X0338452Y0260377D01*
X0338868Y0260999D01*
X0339014Y0261733D01*
X0338868Y0262467D01*
X0338765Y0262621D01*
X0339001Y0263062D01*
X0344253D01*
X0348426Y0258889D01*
Y0255833D01*
X0348507Y0255423D01*
X0348739Y0255076D01*
X0348808Y0255006D01*
X0348672Y0254829D01*
X0348173Y0253625D01*
X0348003Y0252333D01*
X0348173Y0251041D01*
X0348672Y0249836D01*
X0349466Y0248802D01*
X0350500Y0248009D01*
X0351704Y0247510D01*
X0352996Y0247340D01*
X0354288Y0247510D01*
X0355492Y0248009D01*
X0356526Y0248802D01*
X0356707Y0249038D01*
X0357180Y0248877D01*
Y0246783D01*
X0353496D01*
Y0242333D01*
Y0237883D01*
X0357180D01*
Y0235789D01*
X0356707Y0235628D01*
X0356526Y0235863D01*
X0355492Y0236656D01*
X0354288Y0237155D01*
X0352996Y0237325D01*
X0351704Y0237155D01*
X0350500Y0236656D01*
X0349466Y0235863D01*
X0348672Y0234829D01*
X0348173Y0233625D01*
X0348003Y0232333D01*
X0348173Y0231041D01*
X0348672Y0229836D01*
X0349466Y0228802D01*
X0350500Y0228009D01*
X0351704Y0227510D01*
X0352996Y0227340D01*
X0354288Y0227510D01*
X0355492Y0228009D01*
X0356526Y0228802D01*
X0356707Y0229037D01*
X0357180Y0228877D01*
Y0216333D01*
X0357184Y0216316D01*
X0357028Y0214735D01*
X0356562Y0213199D01*
X0355805Y0211783D01*
X0354787Y0210542D01*
X0353546Y0209523D01*
X0352130Y0208767D01*
X0350594Y0208301D01*
X0349013Y0208145D01*
X0348996Y0208148D01*
X0266996D01*
X0266979Y0208145D01*
X0265398Y0208301D01*
X0263862Y0208767D01*
X0262446Y0209523D01*
X0261205Y0210542D01*
X0260187Y0211783D01*
X0259430Y0213199D01*
X0258964Y0214735D01*
X0258808Y0216316D01*
X0258812Y0216333D01*
Y0228877D01*
X0259285Y0229037D01*
X0259466Y0228802D01*
X0260500Y0228009D01*
X0261704Y0227510D01*
X0262996Y0227340D01*
X0264288Y0227510D01*
X0265492Y0228009D01*
X0266526Y0228802D01*
X0267320Y0229836D01*
X0267819Y0231041D01*
X0267989Y0232333D01*
X0267819Y0233625D01*
X0267320Y0234829D01*
X0266526Y0235863D01*
X0265492Y0236656D01*
X0264288Y0237155D01*
X0262996Y0237325D01*
X0261704Y0237155D01*
X0260500Y0236656D01*
X0259466Y0235863D01*
X0259285Y0235628D01*
X0258812Y0235789D01*
Y0237883D01*
X0262496D01*
Y0242333D01*
Y0246783D01*
X0258812D01*
Y0248877D01*
X0259285Y0249038D01*
X0259466Y0248802D01*
X0260500Y0248009D01*
X0261704Y0247510D01*
X0262996Y0247340D01*
X0264288Y0247510D01*
X0265492Y0248009D01*
X0266526Y0248802D01*
X0267320Y0249836D01*
X0267819Y0251041D01*
X0267989Y0252333D01*
X0267819Y0253625D01*
X0267320Y0254829D01*
X0267184Y0255006D01*
X0269746Y0257569D01*
X0273539Y0253776D01*
X0273886Y0253544D01*
X0274296Y0253462D01*
X0281416D01*
X0281540Y0253276D01*
X0282162Y0252861D01*
X0282896Y0252715D01*
X0283630Y0252861D01*
X0284252Y0253276D01*
X0284668Y0253899D01*
X0284814Y0254633D01*
X0284668Y0255367D01*
X0284252Y0255989D01*
X0283630Y0256405D01*
X0282896Y0256551D01*
X0282162Y0256405D01*
X0281540Y0255989D01*
X0281282Y0255603D01*
X0274740D01*
X0271467Y0258876D01*
Y0326610D01*
X0283659Y0338802D01*
X0283996Y0338735D01*
X0284730Y0338881D01*
X0285352Y0339297D01*
X0285768Y0339919D01*
X0285914Y0340653D01*
X0285768Y0341387D01*
X0285352Y0342009D01*
X0284730Y0342425D01*
X0284478Y0342475D01*
X0284372Y0343006D01*
X0284702Y0343227D01*
X0285118Y0343849D01*
X0285264Y0344583D01*
X0285118Y0345317D01*
X0284702Y0345939D01*
X0284080Y0346355D01*
X0283346Y0346501D01*
X0282612Y0346355D01*
X0281990Y0345939D01*
X0281662Y0345448D01*
X0281449Y0345413D01*
X0281204Y0345426D01*
X0281110Y0345454D01*
X0280752Y0345989D01*
X0280130Y0346405D01*
X0279396Y0346551D01*
X0278662Y0346405D01*
X0278040Y0345989D01*
X0277624Y0345367D01*
X0277478Y0344633D01*
X0277545Y0344296D01*
X0267860Y0334611D01*
X0267370Y0334708D01*
X0267320Y0334829D01*
X0266526Y0335863D01*
X0265492Y0336656D01*
X0264513Y0337062D01*
Y0337603D01*
X0265492Y0338009D01*
X0266526Y0338802D01*
X0267320Y0339836D01*
X0267819Y0341040D01*
X0267989Y0342333D01*
X0267819Y0343625D01*
X0267320Y0344829D01*
X0266526Y0345863D01*
X0265492Y0346656D01*
X0264513Y0347062D01*
Y0347603D01*
X0265492Y0348009D01*
X0266526Y0348802D01*
X0267320Y0349836D01*
X0267819Y0351041D01*
X0267989Y0352333D01*
X0267819Y0353625D01*
X0267320Y0354829D01*
X0266526Y0355863D01*
X0265492Y0356657D01*
X0264513Y0357062D01*
Y0357603D01*
X0265492Y0358009D01*
X0266526Y0358802D01*
X0267320Y0359836D01*
X0267819Y0361040D01*
X0267989Y0362333D01*
X0267819Y0363625D01*
X0267320Y0364829D01*
X0266526Y0365863D01*
X0265492Y0366656D01*
X0264513Y0367062D01*
Y0367603D01*
X0265492Y0368009D01*
X0266526Y0368802D01*
X0267320Y0369836D01*
X0267819Y0371041D01*
X0267989Y0372333D01*
X0267819Y0373625D01*
X0267568Y0374231D01*
X0267846Y0374646D01*
X0348147D01*
X0348424Y0374231D01*
D02*
G37*
%LPC*%
G36*
X0352496Y0316783D02*
X0348546D01*
Y0312833D01*
X0352496D01*
Y0316783D01*
D02*
G37*
G36*
Y0311833D02*
X0348546D01*
Y0307883D01*
X0352496D01*
Y0311833D01*
D02*
G37*
G36*
X0284296Y0297551D02*
X0283562Y0297405D01*
X0282940Y0296989D01*
X0282524Y0296367D01*
X0282378Y0295633D01*
X0282524Y0294899D01*
X0282818Y0294459D01*
Y0294391D01*
X0282710Y0294319D01*
X0282224Y0293591D01*
X0282053Y0292733D01*
X0282224Y0291874D01*
X0282710Y0291147D01*
X0283438Y0290660D01*
X0284296Y0290490D01*
X0287667D01*
X0301210Y0276947D01*
X0301938Y0276460D01*
X0302796Y0276290D01*
X0316196D01*
X0317055Y0276460D01*
X0317782Y0276947D01*
X0318268Y0277674D01*
X0318439Y0278533D01*
Y0287904D01*
X0319168Y0288632D01*
X0319654Y0289360D01*
X0319825Y0290218D01*
X0319654Y0291077D01*
X0319175Y0291794D01*
Y0291959D01*
X0319468Y0292399D01*
X0319614Y0293133D01*
X0319468Y0293867D01*
X0319052Y0294489D01*
X0318430Y0294905D01*
X0317696Y0295051D01*
X0316962Y0294905D01*
X0316340Y0294489D01*
X0315924Y0293867D01*
X0315778Y0293133D01*
X0315924Y0292399D01*
X0316218Y0291959D01*
Y0291953D01*
X0315996Y0291804D01*
X0314610Y0290419D01*
X0314124Y0289691D01*
X0313953Y0288833D01*
Y0280776D01*
X0303725D01*
X0290182Y0294319D01*
X0289455Y0294805D01*
X0288596Y0294976D01*
X0286477D01*
X0286160Y0295362D01*
X0286214Y0295633D01*
X0286068Y0296367D01*
X0285652Y0296989D01*
X0285030Y0297405D01*
X0284296Y0297551D01*
D02*
G37*
G36*
X0313196Y0261051D02*
X0312462Y0260905D01*
X0311840Y0260489D01*
X0311552D01*
X0310930Y0260905D01*
X0310196Y0261051D01*
X0309462Y0260905D01*
X0308840Y0260489D01*
X0308424Y0259867D01*
X0308278Y0259133D01*
X0308424Y0258399D01*
X0308840Y0257776D01*
X0309462Y0257361D01*
X0310076Y0257239D01*
Y0247452D01*
X0305375Y0242751D01*
X0305154Y0242420D01*
X0305077Y0242030D01*
Y0232227D01*
X0304462Y0232105D01*
X0303840Y0231689D01*
X0303424Y0231067D01*
X0303278Y0230333D01*
X0303374Y0229852D01*
X0303354Y0229823D01*
X0303276Y0229433D01*
Y0227390D01*
X0303134Y0227371D01*
X0302050Y0226922D01*
X0301120Y0226208D01*
X0300407Y0225278D01*
X0299958Y0224195D01*
X0299805Y0223033D01*
X0299958Y0221870D01*
X0300407Y0220787D01*
X0301120Y0219857D01*
X0302050Y0219143D01*
X0303134Y0218694D01*
X0304296Y0218542D01*
X0305458Y0218694D01*
X0306542Y0219143D01*
X0307472Y0219857D01*
X0307708Y0220164D01*
X0308208D01*
X0308520Y0219757D01*
X0309451Y0219043D01*
X0310534Y0218595D01*
X0311696Y0218442D01*
X0312859Y0218595D01*
X0313942Y0219043D01*
X0314872Y0219757D01*
X0315585Y0220687D01*
X0316034Y0221770D01*
X0316187Y0222933D01*
X0316034Y0224095D01*
X0315585Y0225178D01*
X0314872Y0226108D01*
X0313942Y0226822D01*
X0312859Y0227271D01*
X0312540Y0227313D01*
X0312538Y0227323D01*
X0312317Y0227654D01*
X0310035Y0229936D01*
X0310114Y0230333D01*
X0309968Y0231067D01*
X0309552Y0231689D01*
X0308930Y0232105D01*
X0308316Y0232227D01*
Y0241110D01*
X0313017Y0245812D01*
X0313238Y0246143D01*
X0313316Y0246533D01*
Y0257239D01*
X0313930Y0257361D01*
X0314552Y0257776D01*
X0314968Y0258399D01*
X0315114Y0259133D01*
X0314968Y0259867D01*
X0314552Y0260489D01*
X0313930Y0260905D01*
X0313196Y0261051D01*
D02*
G37*
G36*
X0352496Y0246783D02*
X0348546D01*
Y0242833D01*
X0352496D01*
Y0246783D01*
D02*
G37*
G36*
X0267446D02*
X0263496D01*
Y0242833D01*
X0267446D01*
Y0246783D01*
D02*
G37*
G36*
X0352496Y0241833D02*
X0348546D01*
Y0237883D01*
X0352496D01*
Y0241833D01*
D02*
G37*
G36*
X0267446Y0241833D02*
X0263496D01*
Y0237883D01*
X0267446D01*
Y0241833D01*
D02*
G37*
G36*
X0316596Y0239554D02*
Y0236133D01*
X0320017D01*
X0319947Y0236665D01*
X0319549Y0237626D01*
X0318915Y0238452D01*
X0318090Y0239085D01*
X0317128Y0239484D01*
X0316596Y0239554D01*
D02*
G37*
G36*
X0315596D02*
X0315064Y0239484D01*
X0314103Y0239085D01*
X0313277Y0238452D01*
X0312643Y0237626D01*
X0312245Y0236665D01*
X0312175Y0236133D01*
X0315596D01*
Y0239554D01*
D02*
G37*
G36*
X0287277Y0279315D02*
X0286419Y0279145D01*
X0285691Y0278658D01*
X0285205Y0277930D01*
X0285034Y0277072D01*
Y0274514D01*
Y0262352D01*
X0285205Y0261493D01*
X0285691Y0260766D01*
X0289753Y0256704D01*
Y0254062D01*
X0276560Y0240869D01*
X0276074Y0240141D01*
X0275903Y0239283D01*
Y0234283D01*
X0276074Y0233424D01*
X0276560Y0232697D01*
X0277288Y0232210D01*
X0278146Y0232040D01*
X0279005Y0232210D01*
X0279732Y0232697D01*
X0280218Y0233424D01*
X0280389Y0234283D01*
Y0234758D01*
X0280858Y0234870D01*
X0281307Y0233787D01*
X0282020Y0232857D01*
X0282950Y0232143D01*
X0284034Y0231695D01*
X0285196Y0231541D01*
X0286358Y0231695D01*
X0287442Y0232143D01*
X0288372Y0232857D01*
X0289063Y0233758D01*
X0289561Y0233777D01*
X0289621Y0233717D01*
X0289724Y0233199D01*
X0290140Y0232576D01*
X0290762Y0232161D01*
X0291496Y0232015D01*
X0292230Y0232161D01*
X0292852Y0232576D01*
X0293268Y0233199D01*
X0293414Y0233933D01*
X0293268Y0234667D01*
X0292852Y0235289D01*
X0292230Y0235705D01*
X0291712Y0235808D01*
X0291209Y0236311D01*
X0290729Y0236631D01*
X0290163Y0236744D01*
X0289594D01*
X0289534Y0237195D01*
X0289086Y0238278D01*
X0288372Y0239208D01*
X0287442Y0239922D01*
X0286358Y0240371D01*
X0285196Y0240524D01*
X0284034Y0240371D01*
X0282950Y0239922D01*
X0282020Y0239208D01*
X0281307Y0238278D01*
X0280858Y0237195D01*
X0280389Y0237307D01*
Y0238354D01*
X0293582Y0251547D01*
X0294068Y0252274D01*
X0294239Y0253133D01*
Y0257633D01*
X0294068Y0258491D01*
X0293582Y0259219D01*
X0289520Y0263281D01*
Y0274514D01*
Y0277072D01*
X0289350Y0277930D01*
X0288863Y0278658D01*
X0288136Y0279145D01*
X0287277Y0279315D01*
D02*
G37*
G36*
X0320017Y0235133D02*
X0316596D01*
Y0231712D01*
X0317128Y0231782D01*
X0318090Y0232180D01*
X0318915Y0232814D01*
X0319549Y0233639D01*
X0319947Y0234601D01*
X0320017Y0235133D01*
D02*
G37*
G36*
X0315596D02*
X0312175D01*
X0312245Y0234601D01*
X0312643Y0233639D01*
X0313277Y0232814D01*
X0314103Y0232180D01*
X0315064Y0231782D01*
X0315596Y0231712D01*
Y0235133D01*
D02*
G37*
G36*
X0348996Y0223618D02*
X0347575Y0223478D01*
X0346208Y0223063D01*
X0344949Y0222390D01*
X0343845Y0221484D01*
X0342939Y0220380D01*
X0342266Y0219121D01*
X0341851Y0217754D01*
X0341711Y0216333D01*
X0341851Y0214911D01*
X0342266Y0213545D01*
X0342939Y0212285D01*
X0343845Y0211181D01*
X0344949Y0210275D01*
X0346208Y0209602D01*
X0347575Y0209188D01*
X0348996Y0209048D01*
X0350417Y0209188D01*
X0351784Y0209602D01*
X0353043Y0210275D01*
X0354147Y0211181D01*
X0355053Y0212285D01*
X0355727Y0213545D01*
X0356141Y0214911D01*
X0356281Y0216333D01*
X0356141Y0217754D01*
X0355727Y0219121D01*
X0355053Y0220380D01*
X0354147Y0221484D01*
X0353043Y0222390D01*
X0351784Y0223063D01*
X0350417Y0223478D01*
X0348996Y0223618D01*
D02*
G37*
G36*
X0266996D02*
X0265575Y0223478D01*
X0264208Y0223063D01*
X0262949Y0222390D01*
X0261845Y0221484D01*
X0260939Y0220380D01*
X0260265Y0219121D01*
X0259851Y0217754D01*
X0259711Y0216333D01*
X0259851Y0214911D01*
X0260265Y0213545D01*
X0260939Y0212285D01*
X0261845Y0211181D01*
X0262949Y0210275D01*
X0264208Y0209602D01*
X0265575Y0209188D01*
X0266996Y0209048D01*
X0268417Y0209188D01*
X0269784Y0209602D01*
X0271043Y0210275D01*
X0272147Y0211181D01*
X0273053Y0212285D01*
X0273727Y0213545D01*
X0274141Y0214911D01*
X0274281Y0216333D01*
X0274141Y0217754D01*
X0273727Y0219121D01*
X0273053Y0220380D01*
X0272147Y0221484D01*
X0271043Y0222390D01*
X0269784Y0223063D01*
X0268417Y0223478D01*
X0266996Y0223618D01*
D02*
G37*
%LPD*%
D30*
X0323196Y0298433D02*
X0349096D01*
X0322616Y0297033D02*
X0348296D01*
X0347296Y0295633D02*
X0348496Y0294433D01*
X0321996Y0295633D02*
X0347296D01*
X0274296Y0254533D02*
X0282896D01*
X0348496Y0286833D02*
X0352996Y0282333D01*
X0348496Y0286833D02*
Y0294433D01*
X0262996Y0252333D02*
X0268996Y0258333D01*
X0262996Y0262333D02*
X0267596Y0266933D01*
Y0332833D01*
X0279396Y0344633D01*
X0268996Y0258333D02*
Y0330233D01*
X0283346Y0344583D01*
X0270396Y0327053D02*
X0283996Y0340653D01*
X0270396Y0258433D02*
Y0327053D01*
Y0258433D02*
X0274296Y0254533D01*
X0322096Y0269833D02*
X0326396Y0265533D01*
X0349096Y0298433D02*
X0352996Y0302333D01*
X0348296Y0297033D02*
X0352996Y0292333D01*
X0284496Y0317031D02*
X0300598D01*
X0284496Y0324905D02*
X0294744D01*
X0284496Y0332779D02*
X0288850D01*
X0336196Y0261733D02*
X0337096D01*
X0326196Y0251333D02*
Y0251733D01*
X0336196Y0261733D01*
X0300598Y0317031D02*
X0321996Y0295633D01*
X0294744Y0324905D02*
X0322616Y0297033D01*
X0288850Y0332779D02*
X0323196Y0298433D01*
X0349496Y0255833D02*
X0352996Y0252333D01*
X0324296Y0264133D02*
X0344696D01*
X0349496Y0259333D01*
Y0255833D02*
Y0259333D01*
X0345276Y0265533D02*
X0348476Y0262333D01*
X0352996D01*
X0326396Y0265533D02*
X0345276D01*
X0321096Y0269833D02*
X0322096D01*
D31*
X0284296Y0292733D02*
Y0295633D01*
X0340596Y0302833D02*
X0340996Y0302433D01*
X0344496D01*
X0317596Y0290233D02*
X0317696Y0290333D01*
Y0293133D01*
X0340596Y0321033D02*
Y0336933D01*
X0325296Y0300733D02*
X0327996D01*
X0340596Y0302833D02*
Y0321033D01*
X0338496Y0300733D02*
X0340596Y0302833D01*
X0327996Y0300733D02*
X0338496D01*
X0290163Y0235265D02*
X0291496Y0233933D01*
X0285963Y0235265D02*
X0290163D01*
X0285196Y0236033D02*
X0285963Y0235265D01*
X0340596Y0361146D02*
X0344383Y0364933D01*
X0340596Y0349833D02*
X0345096D01*
X0340596Y0336933D02*
Y0349833D01*
Y0361146D01*
X0316367Y0272604D02*
X0324520D01*
X0315396Y0271633D02*
X0316367Y0272604D01*
D33*
X0316196Y0288833D02*
X0317582Y0290218D01*
X0316196Y0278533D02*
Y0288833D01*
X0302796Y0278533D02*
X0316196D01*
X0288596Y0292733D02*
X0302796Y0278533D01*
X0284296Y0292733D02*
X0288596D01*
X0278146Y0234283D02*
Y0239283D01*
X0291996Y0253133D01*
X0287277Y0274514D02*
Y0277072D01*
Y0262352D02*
Y0274514D01*
Y0262352D02*
X0291996Y0257633D01*
Y0253133D02*
Y0257633D01*
D35*
X0306096Y0242030D02*
X0311096Y0247030D01*
Y0258233D01*
X0307296Y0241533D02*
X0312296Y0246533D01*
Y0258233D01*
X0313196Y0259133D01*
X0305196Y0230333D02*
X0306096D01*
X0307296D02*
X0308196D01*
X0310196Y0259133D02*
X0311096Y0258233D01*
X0304296Y0223033D02*
Y0229433D01*
X0305196Y0230333D01*
X0306096D02*
Y0242030D01*
X0308196Y0230333D02*
X0311596Y0226933D01*
Y0222933D02*
Y0226933D01*
X0307296Y0230333D02*
Y0241533D01*
D43*
X0348996Y0388333D02*
D03*
X0266996D02*
D03*
Y0216333D02*
D03*
X0348996D02*
D03*
D44*
X0317546Y0225333D02*
D03*
X0298446D02*
D03*
D45*
X0293696Y0214933D02*
D03*
X0322296D02*
D03*
D46*
X0352996Y0232333D02*
D03*
Y0272333D02*
D03*
Y0262333D02*
D03*
Y0252333D02*
D03*
Y0282333D02*
D03*
Y0292333D02*
D03*
Y0302333D02*
D03*
Y0372333D02*
D03*
Y0362333D02*
D03*
Y0352333D02*
D03*
Y0342333D02*
D03*
Y0332333D02*
D03*
Y0322333D02*
D03*
X0262996Y0232333D02*
D03*
Y0272333D02*
D03*
Y0262333D02*
D03*
Y0252333D02*
D03*
Y0292333D02*
D03*
Y0302333D02*
D03*
Y0312333D02*
D03*
Y0372333D02*
D03*
Y0362333D02*
D03*
Y0352333D02*
D03*
Y0342333D02*
D03*
Y0332333D02*
D03*
Y0322333D02*
D03*
D47*
X0352996Y0242333D02*
D03*
Y0312333D02*
D03*
X0262996Y0242333D02*
D03*
Y0282333D02*
D03*
D48*
X0344496Y0302433D02*
D03*
X0312996Y0278533D02*
D03*
X0293296Y0297633D02*
D03*
X0296096Y0294333D02*
D03*
X0316196Y0278533D02*
D03*
X0317596Y0290233D02*
D03*
X0317696Y0293133D02*
D03*
X0284296Y0295633D02*
D03*
Y0292733D02*
D03*
X0282896Y0254633D02*
D03*
X0278146Y0234283D02*
D03*
X0272196Y0223013D02*
D03*
X0344196Y0306366D02*
D03*
X0287796Y0330333D02*
D03*
X0290696Y0327333D02*
D03*
X0298496Y0237033D02*
D03*
Y0247033D02*
D03*
X0303096Y0236033D02*
D03*
Y0232933D02*
D03*
X0336996Y0288233D02*
D03*
X0334796D02*
D03*
X0336996Y0290533D02*
D03*
X0339296D02*
D03*
X0334796D02*
D03*
X0315646Y0209933D02*
D03*
X0312496D02*
D03*
X0309346D02*
D03*
X0306196D02*
D03*
X0303046D02*
D03*
X0299896D02*
D03*
X0315646Y0213833D02*
D03*
X0312496D02*
D03*
X0309346D02*
D03*
X0306196D02*
D03*
X0303046D02*
D03*
X0299896D02*
D03*
Y0217733D02*
D03*
X0303046D02*
D03*
X0306196D02*
D03*
X0309346D02*
D03*
X0312496D02*
D03*
X0315646D02*
D03*
X0305196Y0230333D02*
D03*
X0313196Y0259133D02*
D03*
X0308196Y0230333D02*
D03*
X0310196Y0259133D02*
D03*
X0284496Y0324905D02*
D03*
Y0317031D02*
D03*
Y0332779D02*
D03*
X0327996Y0300733D02*
D03*
X0340596Y0321033D02*
D03*
Y0336933D02*
D03*
X0325296Y0300733D02*
D03*
X0343096Y0321033D02*
D03*
X0279396Y0344633D02*
D03*
X0283346Y0344583D02*
D03*
X0283996Y0340653D02*
D03*
X0324296Y0264133D02*
D03*
X0287277Y0277072D02*
D03*
Y0274514D02*
D03*
X0326196Y0251333D02*
D03*
X0337096Y0261733D02*
D03*
X0332496Y0215316D02*
D03*
X0283496D02*
D03*
X0337449Y0211133D02*
D03*
X0327543Y0211163D02*
D03*
X0278543Y0211194D02*
D03*
X0288449Y0211163D02*
D03*
X0337896Y0305033D02*
D03*
X0334796D02*
D03*
X0336296Y0303433D02*
D03*
X0279346Y0285533D02*
D03*
X0282671D02*
D03*
X0285996D02*
D03*
Y0281333D02*
D03*
X0272696Y0277133D02*
D03*
Y0281333D02*
D03*
Y0285533D02*
D03*
X0276021D02*
D03*
X0275696Y0373533D02*
D03*
X0269096Y0346733D02*
D03*
X0344196Y0309133D02*
D03*
X0291916Y0241933D02*
D03*
X0298376D02*
D03*
X0313096Y0230333D02*
D03*
X0311296Y0266895D02*
D03*
X0304696D02*
D03*
X0296096Y0297633D02*
D03*
X0308096D02*
D03*
Y0294333D02*
D03*
X0310646Y0297633D02*
D03*
Y0294333D02*
D03*
X0313196Y0297633D02*
D03*
Y0294333D02*
D03*
X0308096Y0250033D02*
D03*
Y0247333D02*
D03*
X0317296Y0246966D02*
D03*
X0314496D02*
D03*
X0317296Y0243899D02*
D03*
X0314496D02*
D03*
Y0240833D02*
D03*
X0317296D02*
D03*
Y0250033D02*
D03*
X0311696Y0240833D02*
D03*
X0314496Y0250033D02*
D03*
X0299396Y0314733D02*
D03*
X0303996Y0310133D02*
D03*
X0301696Y0312433D02*
D03*
X0296696Y0319433D02*
D03*
X0293596Y0322633D02*
D03*
X0307096Y0345633D02*
D03*
X0312096Y0350633D02*
D03*
X0309596Y0348133D02*
D03*
X0319596Y0358133D02*
D03*
X0322096Y0360633D02*
D03*
X0317096Y0355633D02*
D03*
X0314596Y0353133D02*
D03*
X0329596Y0368133D02*
D03*
X0332096Y0370633D02*
D03*
X0339596Y0373533D02*
D03*
X0327096Y0365633D02*
D03*
X0324596Y0363133D02*
D03*
X0325796Y0357433D02*
D03*
X0328296Y0359933D02*
D03*
X0330796Y0362433D02*
D03*
X0323296Y0354933D02*
D03*
X0320796Y0352433D02*
D03*
X0315796Y0347433D02*
D03*
X0313296Y0344933D02*
D03*
X0310796Y0342433D02*
D03*
X0318296Y0349933D02*
D03*
X0304496Y0337933D02*
D03*
X0300196D02*
D03*
X0308296Y0339933D02*
D03*
X0294696Y0330133D02*
D03*
X0297196Y0327633D02*
D03*
X0299696Y0325133D02*
D03*
X0292196Y0332633D02*
D03*
X0289696Y0335133D02*
D03*
X0304696Y0320133D02*
D03*
X0307196Y0317633D02*
D03*
X0302196Y0322633D02*
D03*
X0314696Y0310133D02*
D03*
X0312196Y0312633D02*
D03*
X0309696Y0315133D02*
D03*
X0287296Y0337933D02*
D03*
X0291596D02*
D03*
X0295896D02*
D03*
X0266396Y0347333D02*
D03*
X0295996Y0343133D02*
D03*
X0300296D02*
D03*
X0304596D02*
D03*
X0291696D02*
D03*
X0287296D02*
D03*
Y0347033D02*
D03*
Y0350933D02*
D03*
Y0354833D02*
D03*
Y0363433D02*
D03*
Y0366533D02*
D03*
Y0358733D02*
D03*
X0326896Y0337533D02*
D03*
Y0329733D02*
D03*
Y0333633D02*
D03*
Y0341433D02*
D03*
Y0345333D02*
D03*
Y0349233D02*
D03*
Y0353133D02*
D03*
Y0314133D02*
D03*
Y0310233D02*
D03*
Y0318033D02*
D03*
Y0321933D02*
D03*
Y0325833D02*
D03*
X0325396Y0373533D02*
D03*
X0328946D02*
D03*
X0336046D02*
D03*
X0332496D02*
D03*
X0307646D02*
D03*
X0314746D02*
D03*
X0321846D02*
D03*
X0318296D02*
D03*
X0343146D02*
D03*
X0286346D02*
D03*
X0300546D02*
D03*
X0293446D02*
D03*
X0282796D02*
D03*
X0279246D02*
D03*
X0300846Y0352233D02*
D03*
X0311196Y0373533D02*
D03*
X0304096D02*
D03*
X0296996D02*
D03*
X0289896D02*
D03*
X0347196Y0267933D02*
D03*
Y0257133D02*
D03*
Y0248433D02*
D03*
X0314396Y0366533D02*
D03*
X0300846D02*
D03*
X0347196Y0237233D02*
D03*
X0307896Y0359733D02*
D03*
X0342296Y0234033D02*
D03*
X0344796Y0231433D02*
D03*
X0339696D02*
D03*
X0292896Y0230999D02*
D03*
Y0227166D02*
D03*
X0289296Y0223333D02*
D03*
Y0230999D02*
D03*
X0296496D02*
D03*
X0300196Y0254633D02*
D03*
Y0257033D02*
D03*
X0303496Y0259133D02*
D03*
X0289296Y0227166D02*
D03*
X0333796Y0240733D02*
D03*
X0328096D02*
D03*
X0324696Y0224133D02*
D03*
X0322396Y0235933D02*
D03*
X0330496Y0238133D02*
D03*
X0322396Y0230333D02*
D03*
X0318396D02*
D03*
X0276496Y0223013D02*
D03*
X0267496Y0236733D02*
D03*
X0272696Y0243333D02*
D03*
X0268896Y0247433D02*
D03*
X0330296Y0222133D02*
D03*
X0335196D02*
D03*
X0284796Y0250933D02*
D03*
X0293396Y0249533D02*
D03*
X0271796Y0241033D02*
D03*
X0267396Y0227253D02*
D03*
X0344796D02*
D03*
X0354096Y0225533D02*
D03*
X0349396Y0267333D02*
D03*
X0261096Y0224833D02*
D03*
X0276496Y0218773D02*
D03*
Y0214533D02*
D03*
X0339696Y0227253D02*
D03*
Y0222133D02*
D03*
Y0216333D02*
D03*
X0291496Y0233933D02*
D03*
X0267496Y0367133D02*
D03*
X0344383Y0364933D02*
D03*
X0345096Y0349833D02*
D03*
X0324520Y0272604D02*
D03*
X0321096Y0269833D02*
D03*
X0315196Y0271533D02*
D03*
D49*
X0311696Y0222933D02*
D03*
X0304296Y0223033D02*
D03*
X0285196Y0236033D02*
D03*
X0316096Y0235633D02*
D03*
M02*
