M48
;Layer_Color=9474304
;FILE_FORMAT=2:5
INCH
;TYPE=PLATED
T1F00S00C0.01181
T2F00S00C0.02750
T4F00S00C0.03500
;TYPE=NON_PLATED
T5F00S00C0.11500
%
T01
X0315646Y0209933
Y0213833
Y0217733
X0313096Y0230333
X0318396
X0322396
Y0235933
X0317296Y0240833
X0314496
Y0243899
X0317296
Y0246966
X0314496
Y0250033
X0317296
X0326196Y0251333
X0328096Y0240733
X0330496Y0238133
X0333796Y0240733
X0342296Y0234033
X0344796Y0231433
Y0227253
X0339696
Y0231433
Y0222133
X0335196
X0330296
X0324696Y0224133
X0327543Y0211163
X0332496Y0215316
X0339696Y0216333
X0337449Y0211133
X0354096Y0225533
X0347196Y0237233
Y0248433
Y0257133
Y0267933
X0349396Y0267333
X0337096Y0261733
X0324296Y0264133
X0324520Y0272604
X0321096Y0269833
X0315196Y0271533
X0316196Y0278533
X0312996
X0313196Y0294333
Y0297633
X0317696Y0293133
X0317596Y0290233
X0334796Y0290533
X0336996
Y0288233
X0334796
X0339296Y0290533
X0337896Y0305033
X0334796
X0336296Y0303433
X0344496Y0302433
X0344196Y0306366
Y0309133
X0326896Y0310233
X0327996Y0300733
X0325296
X0314696Y0310133
X0313196Y0259133
X0310196
X0303496
X0300196Y0257033
Y0254633
X0298496Y0247033
X0298376Y0241933
X0298496Y0237033
X0303096Y0236033
Y0232933
X0305196Y0230333
X0308196
X0296496Y0230999
X0292896
X0289296
Y0227166
X0292896
X0289296Y0223333
X0291496Y0233933
X0291916Y0241933
X0293396Y0249533
X0284796Y0250933
X0282896Y0254633
X0268896Y0247433
X0272696Y0243333
X0271796Y0241033
X0267496Y0236733
X0267396Y0227253
X0261096Y0224833
X0272196Y0223013
X0276496
Y0218773
Y0214533
X0278543Y0211194
X0283496Y0215316
X0288449Y0211163
X0299896Y0209933
X0303046
X0306196
X0309346
X0312496
Y0213833
X0309346
X0306196
X0303046
X0299896
Y0217733
X0303046
X0306196
X0309346
X0312496
X0311696Y0240833
X0308096Y0247333
Y0250033
X0311296Y0266895
X0304696
X0287277Y0274514
Y0277072
X0285996Y0281333
Y0285533
X0282671
X0279346
X0276021
X0272696
Y0281333
Y0277133
X0284296Y0292733
Y0295633
X0293296Y0297633
X0296096
Y0294333
X0308096
X0310646
Y0297633
X0308096
X0303996Y0310133
X0301696Y0312433
X0278146Y0234283
X0284496Y0317031
Y0324905
Y0332779
X0287796Y0330333
X0290696Y0327333
X0294696Y0330133
X0297196Y0327633
X0299696Y0325133
X0302196Y0322633
X0304696Y0320133
X0307196Y0317633
X0309696Y0315133
X0312196Y0312633
X0299396Y0314733
X0296696Y0319433
X0293596Y0322633
X0292196Y0332633
X0289696Y0335133
X0291596Y0337933
X0287296
Y0343133
Y0347033
Y0350933
Y0354833
Y0358733
Y0363433
Y0366533
X0286346Y0373533
X0282796
X0279246
X0275696
X0289896
X0293446
X0296996
X0300546
X0304096
X0307646
X0311196
X0307896Y0359733
X0312096Y0350633
X0309596Y0348133
X0307096Y0345633
X0304596Y0343133
X0300296
X0295996
X0291696
X0295896Y0337933
X0300196
X0304496
X0308296Y0339933
X0310796Y0342433
X0300846Y0352233
Y0366533
X0267496Y0367133
X0266396Y0347333
X0269096Y0346733
X0279396Y0344633
X0283346Y0344583
X0283996Y0340653
X0313296Y0344933
X0315796Y0347433
X0318296Y0349933
X0320796Y0352433
X0323296Y0354933
X0325796Y0357433
X0328296Y0359933
X0330796Y0362433
X0329596Y0368133
X0332096Y0370633
X0332496Y0373533
X0328946
X0325396
X0321846
X0318296
X0314746
X0314396Y0366533
X0319596Y0358133
X0322096Y0360633
X0324596Y0363133
X0327096Y0365633
X0326896Y0353133
Y0349233
Y0345333
Y0341433
Y0337533
Y0333633
Y0329733
Y0325833
Y0321933
Y0318033
Y0314133
X0340596Y0321033
X0343096
X0340596Y0336933
X0345096Y0349833
X0344383Y0364933
X0343146Y0373533
X0339596
X0336046
X0317096Y0355633
X0314596Y0353133
T02
X0317546Y0225333
X0298446
T04
X0352996Y0232333
Y0242333
Y0252333
Y0262333
Y0272333
Y0282333
Y0292333
Y0302333
Y0312333
X0262996
Y0302333
Y0292333
Y0282333
Y0272333
Y0262333
Y0252333
Y0242333
Y0232333
Y0322333
Y0332333
Y0342333
Y0352333
Y0362333
Y0372333
X0352996
Y0362333
Y0352333
Y0342333
Y0332333
Y0322333
T05
X0348996Y0216333
X0266996
Y0388333
X0348996
M30
